<?xml version="1.0" encoding="UTF-8" standalone="no"?>
<!-- Created with Inkscape (http://www.inkscape.org/) -->

<svg
   width="50mm"
   height="35mm"
   viewBox="0 0 50 35"
   version="1.1"
   id="svg5"
   xml:space="preserve"
   inkscape:version="1.2.1 (9c6d41e410, 2022-07-14)"
   sodipodi:docname="crown.svg"
   xmlns:inkscape="http://www.inkscape.org/namespaces/inkscape"
   xmlns:sodipodi="http://sodipodi.sourceforge.net/DTD/sodipodi-0.dtd"
   xmlns="http://www.w3.org/2000/svg"
   xmlns:svg="http://www.w3.org/2000/svg"><sodipodi:namedview
     id="namedview7"
     pagecolor="#ffffff"
     bordercolor="#999999"
     borderopacity="1"
     inkscape:showpageshadow="0"
     inkscape:pageopacity="0"
     inkscape:pagecheckerboard="0"
     inkscape:deskcolor="#d1d1d1"
     inkscape:document-units="mm"
     showgrid="false"
     inkscape:zoom="5.9794052"
     inkscape:cx="55.273056"
     inkscape:cy="82.115191"
     inkscape:window-width="2560"
     inkscape:window-height="1334"
     inkscape:window-x="-11"
     inkscape:window-y="-11"
     inkscape:window-maximized="1"
     inkscape:current-layer="layer1" /><defs
     id="defs2"><clipPath
       clipPathUnits="userSpaceOnUse"
       id="clipPath384"><rect
         style="opacity:0.5;fill:#ffffff"
         id="rect386"
         width="30.056274"
         height="21.270594"
         x="116.52586"
         y="38.610752" /></clipPath><clipPath
       clipPathUnits="userSpaceOnUse"
       id="clipPath351"><rect
         style="opacity:0.5;fill:#ffffff"
         id="rect353"
         width="26.35704"
         height="19.65218"
         x="116.98827"
         y="37.570343" /></clipPath><clipPath
       clipPathUnits="userSpaceOnUse"
       id="clipPath10409"><path
         d="m 81.06,219.06 h 17.879 v 12.6 H 81.06 Z"
         id="path10407" /></clipPath></defs><g
     inkscape:label="Layer 1"
     inkscape:groupmode="layer"
     id="layer1"
     transform="translate(-89.257289,-84.797431)"><g
       id="g10403"
       transform="matrix(2.7967334,0,0,-2.7777778,-200.77455,758.78972)"
       style="stroke-width:0.126569;fill:#ffffff"><g
         id="g10405"
         clip-path="url(#clipPath10409)"
         transform="translate(22.642785,10.977222)"
         style="stroke-width:0.126569;fill:#ffffff"><g
           id="g10411"
           transform="translate(90,229.129)"
           style="stroke-width:0.126569;fill:#ffffff"><path
             d="M 0,0 -2.892,-1.866 0,1.317 2.892,-1.866 Z m 6.251,-3.617 c 0.543,0.384 1.864,1.35 1.864,1.35 L 7.891,-3.769 c 0,0 -0.517,0.288 -1.64,0.152 m -14.079,-0.269 -0.223,1.502 c 0,0 1.32,-0.966 1.863,-1.35 -1.123,0.136 -1.64,-0.152 -1.64,-0.152 M 5.67,-2.9 c 0,0 -2.114,0.675 -5.67,5.431 -3.556,-4.756 -5.67,-5.431 -5.67,-5.431 0,0 -1.075,-0.146 -3.269,2.139 0.895,-4.3 0.94,-7.651 0.94,-7.651 0,0 3.493,-1.657 7.999,-1.657 4.506,0 7.999,1.657 7.999,1.657 0,0 0.045,3.351 0.94,7.651 C 6.745,-3.046 5.67,-2.9 5.67,-2.9"
             style="fill:#ffffff;fill-opacity:1;fill-rule:nonzero;stroke:none;stroke-width:0.126569"
             id="path10413" /></g></g></g></g></svg>
