<?xml version="1.0" encoding="UTF-8" standalone="no"?>
<!-- Created with Inkscape (http://www.inkscape.org/) -->

<svg
   version="1.1"
   id="svg22843"
   width="771.59534"
   height="771.59332"
   viewBox="0 0 771.59534 771.59332"
   sodipodi:docname="target.svg"
   inkscape:version="1.2.1 (9c6d41e410, 2022-07-14)"
   xmlns:inkscape="http://www.inkscape.org/namespaces/inkscape"
   xmlns:sodipodi="http://sodipodi.sourceforge.net/DTD/sodipodi-0.dtd"
   xmlns="http://www.w3.org/2000/svg"
   xmlns:svg="http://www.w3.org/2000/svg">
  <defs
     id="defs22847">
    <clipPath
       clipPathUnits="userSpaceOnUse"
       id="clipPath22859">
      <path
         d="M 0,600 H 600 V 0 H 0 Z"
         id="path22857" />
    </clipPath>
  </defs>
  <sodipodi:namedview
     id="namedview22845"
     pagecolor="#ffffff"
     bordercolor="#000000"
     borderopacity="0.25"
     inkscape:showpageshadow="2"
     inkscape:pageopacity="0.0"
     inkscape:pagecheckerboard="0"
     inkscape:deskcolor="#d1d1d1"
     showgrid="false"
     inkscape:zoom="1.37125"
     inkscape:cx="385.7794"
     inkscape:cy="386.14403"
     inkscape:window-width="2560"
     inkscape:window-height="1334"
     inkscape:window-x="-11"
     inkscape:window-y="-11"
     inkscape:window-maximized="1"
     inkscape:current-layer="g22851">
    <inkscape:page
       x="0"
       y="0"
       id="page22849"
       width="771.59534"
       height="771.59332" />
  </sodipodi:namedview>
  <g
     id="g22851"
     inkscape:groupmode="layer"
     inkscape:label="Page 1"
     transform="matrix(1.3333333,0,0,-1.3333333,-14.202333,785.79665)">
    <g
       id="g22853">
      <g
         id="g22855"
         clip-path="url(#clipPath22859)">
        <g
           id="g22861"
           transform="translate(300,15.6523)">
          <path
             d="m 0,0 c -3.922,0 -7.608,1.527 -10.382,4.3 l -269.666,269.666 c -5.723,5.724 -5.723,15.039 0,20.763 l 269.666,269.667 c 2.774,2.772 6.46,4.299 10.382,4.299 3.922,0 7.608,-1.527 10.382,-4.299 L 280.048,294.729 c 5.724,-5.724 5.724,-15.039 0,-20.763 L 10.382,4.3 C 7.608,1.527 3.922,0 0,0"
             style="fill:#a91c22;fill-opacity:1;fill-rule:nonzero;stroke:none"
             id="path22863" />
        </g>
        <g
           id="g22865"
           transform="translate(300,589.3475)">
          <path
             d="m 0,0 c -5.037,0 -10.073,-1.921 -13.917,-5.765 l -269.666,-269.666 c -7.687,-7.686 -7.687,-20.147 0,-27.834 l 269.666,-269.666 c 3.844,-3.842 8.88,-5.764 13.917,-5.764 5.037,0 10.073,1.922 13.917,5.764 l 269.666,269.666 c 7.687,7.687 7.687,20.148 0,27.834 L 13.917,-5.765 C 10.073,-1.921 5.037,0 0,0 m 0,-10 c 2.586,0 5.017,-1.007 6.846,-2.835 l 269.667,-269.667 c 3.774,-3.774 3.774,-9.917 0,-13.691 L 6.846,-565.859 c -1.829,-1.829 -4.26,-2.836 -6.846,-2.836 -2.586,0 -5.017,1.007 -6.846,2.836 l -269.667,269.666 c -1.828,1.829 -2.835,4.259 -2.835,6.845 0,2.586 1.007,5.018 2.835,6.846 L -6.846,-12.835 C -5.017,-11.007 -2.586,-10 0,-10"
             style="fill:#ffffff;fill-opacity:1;fill-rule:nonzero;stroke:none"
             id="path22867" />
        </g>
        <g
           id="g22869"
           transform="translate(300,181.7001)">
          <path
             d="m 0,0 c -65.335,0 -118.3,52.965 -118.3,118.3 0,65.336 52.965,118.3 118.3,118.3 65.335,0 118.3,-52.964 118.3,-118.3 C 118.3,52.965 65.335,0 0,0 m 0,275.489 c -86.813,0 -157.189,-70.376 -157.189,-157.189 0,-86.814 70.376,-157.19 157.189,-157.19 86.813,0 157.189,70.376 157.189,157.19 0,86.813 -70.376,157.189 -157.189,157.189"
             style="fill:#ffffff;fill-opacity:1;fill-rule:nonzero;stroke:none"
             id="path22871" />
        </g>
        <g
           id="g22873"
           transform="translate(300,252.7538)">
          <path
             d="m 0,0 c -26.094,0 -47.246,21.152 -47.246,47.246 0,26.094 21.152,47.246 47.246,47.246 26.093,0 47.246,-21.152 47.246,-47.246 C 47.246,21.152 26.093,0 0,0 m 0,131.913 c -46.76,0 -84.667,-37.907 -84.667,-84.667 0,-46.76 37.907,-84.666 84.667,-84.666 46.76,0 84.667,37.906 84.667,84.666 0,46.76 -37.907,84.667 -84.667,84.667"
             style="fill:#ffffff;fill-opacity:1;fill-rule:nonzero;stroke:none"
             id="path22875" />
        </g>
      </g>
    </g>
  </g>
</svg>
