<?xml version="1.0" encoding="UTF-8" standalone="no"?>
<!-- Created with Inkscape (http://www.inkscape.org/) -->

<svg
   version="1.1"
   id="svg14483"
   width="114pt"
   height="120pt"
   viewBox="0 0 151.99987 159.99996"
   sodipodi:docname="definitive_loss.svg"
   inkscape:version="1.2.1 (9c6d41e410, 2022-07-14)"
   xmlns:inkscape="http://www.inkscape.org/namespaces/inkscape"
   xmlns:sodipodi="http://sodipodi.sourceforge.net/DTD/sodipodi-0.dtd"
   xmlns="http://www.w3.org/2000/svg"
   xmlns:svg="http://www.w3.org/2000/svg">
  <defs
     id="defs14487">
    <clipPath
       clipPathUnits="userSpaceOnUse"
       id="clipPath14499">
      <path
         d="M 0,300 H 300 V 0 H 0 Z"
         id="path14497" />
    </clipPath>
    <clipPath
       clipPathUnits="userSpaceOnUse"
       id="clipPath29">
      <path
         d="M 0,300 H 300 V 0 H 0 Z"
         id="path27" />
    </clipPath>
    <clipPath
       clipPathUnits="userSpaceOnUse"
       id="clipPath326">
      <path
         d="M 0,300 H 300 V 0 H 0 Z"
         id="path324" />
    </clipPath>
  </defs>
  <sodipodi:namedview
     id="namedview14485"
     pagecolor="#ffffff"
     bordercolor="#000000"
     borderopacity="0.25"
     inkscape:showpageshadow="2"
     inkscape:pageopacity="0.0"
     inkscape:pagecheckerboard="0"
     inkscape:deskcolor="#d1d1d1"
     showgrid="false"
     inkscape:zoom="2.4802237"
     inkscape:cx="55.035358"
     inkscape:cy="124.18235"
     inkscape:window-width="2560"
     inkscape:window-height="1334"
     inkscape:window-x="-11"
     inkscape:window-y="-11"
     inkscape:window-maximized="1"
     inkscape:current-layer="g14491"
     showguides="true"
     inkscape:document-units="pt">
    <inkscape:page
       x="0"
       y="0"
       id="page14489"
       width="151.99986"
       height="159.99995" />
    <sodipodi:guide
       position="-24.291399,61.733296"
       orientation="0,1"
       id="guide1920"
       inkscape:locked="false"
       inkscape:label=""
       inkscape:color="rgb(0,134,229)" />
    <sodipodi:guide
       position="-36.714205,131.06658"
       orientation="0,1"
       id="guide1922"
       inkscape:locked="false"
       inkscape:label=""
       inkscape:color="rgb(0,134,229)" />
  </sodipodi:namedview>
  <g
     id="g14491"
     inkscape:groupmode="layer"
     inkscape:label="Page 1"
     transform="matrix(1.3333333,0,0,-1.3333333,-70.401065,346.75082)">
    <text
       xml:space="preserve"
       style="font-size:100px;line-height:125%;font-family:'Sakkal Majalla';-inkscape-font-specification:'Sakkal Majalla';letter-spacing:0px;word-spacing:0px;fill:#000000;stroke:#000000;stroke-width:0.75px;stroke-linecap:butt;stroke-linejoin:miter;stroke-opacity:1"
       x="-103.81049"
       y="-141.17393"
       id="text54899"
       transform="scale(1,-1)"><tspan
         sodipodi:role="line"
         id="tspan54897"
         x="-103.81049"
         y="-141.17393"
         style="font-size:100px;fill:#000000;fill-opacity:1;stroke:none;stroke-width:0.75px">R</tspan></text>
    <g
       id="g320"
       transform="matrix(0.48,0,0,0.48,37.480145,113.17075)"
       style="stroke-width:2.08332">
      <g
         id="g322"
         clip-path="url(#clipPath326)"
         style="stroke-width:2.08332">
        <g
           id="g328"
           transform="translate(259.7337,126.1916)"
           style="stroke-width:2.08332">
          <path
             d="m 0,0 c -0.267,0 -0.537,0.029 -0.808,0.095 l -7.866,1.882 c -1.861,0.447 -3.011,2.315 -2.565,4.176 0.446,1.863 2.305,3.018 4.176,2.567 L 0.803,6.838 C 2.665,6.391 3.813,4.522 3.369,2.661 2.987,1.07 1.568,0 0,0"
             style="fill:#ffffff;fill-opacity:1;fill-rule:nonzero;stroke:none;stroke-width:2.08332"
             id="path330" />
        </g>
        <g
           id="g332"
           transform="translate(236.6185,131.7199)"
           style="stroke-width:2.08332">
          <path
             d="m 0,0 c -0.267,0 -0.537,0.029 -0.808,0.095 l -15.249,3.646 c -1.862,0.446 -3.01,2.316 -2.566,4.177 0.447,1.862 2.309,3.018 4.177,2.565 L 0.803,6.838 C 2.665,6.393 3.813,4.522 3.369,2.661 2.987,1.07 1.568,0 0,0 m -1.014,-26.784 c -1.179,0 -2.33,0.602 -2.978,1.692 -0.982,1.643 -0.442,3.771 1.203,4.75 l 13.467,8.027 c 1.637,0.979 3.77,0.447 4.75,-1.204 0.981,-1.642 0.441,-3.77 -1.203,-4.749 L 0.758,-26.294 c -0.555,-0.332 -1.166,-0.49 -1.772,-0.49 m -184.914,-11.684 c -1.179,0 -2.331,0.603 -2.978,1.693 -0.982,1.642 -0.443,3.77 1.203,4.75 l 13.466,8.026 c 1.64,0.977 3.77,0.446 4.75,-1.203 0.981,-1.643 0.442,-3.771 -1.202,-4.75 l -13.467,-8.027 c -0.555,-0.331 -1.167,-0.489 -1.772,-0.489 m 157.98,-4.373 c -1.181,0 -2.331,0.603 -2.979,1.691 -0.981,1.644 -0.442,3.772 1.2,4.752 l 13.467,8.028 c 1.647,0.979 3.773,0.444 4.752,-1.2 0.982,-1.646 0.443,-3.774 -1.2,-4.752 l -13.467,-8.03 c -0.557,-0.331 -1.169,-0.489 -1.773,-0.489 m -160.807,-10.524 c -0.266,0 -0.537,0.029 -0.807,0.094 l -7.584,1.815 c -6.183,1.478 -6.851,4.994 -6.851,6.435 0,1.214 0.426,3.006 2.459,4.642 1.492,1.2 3.669,0.964 4.874,-0.528 0.851,-1.058 0.979,-2.464 0.449,-3.619 0.196,-0.064 0.422,-0.126 0.68,-0.188 l 7.583,-1.813 c 1.862,-0.448 3.011,-2.316 2.566,-4.177 -0.382,-1.591 -1.801,-2.661 -3.369,-2.661 m 133.869,-5.531 c -1.18,0 -2.331,0.603 -2.978,1.693 -0.983,1.642 -0.443,3.77 1.202,4.75 l 13.469,8.028 c 1.64,0.98 3.77,0.447 4.75,-1.203 0.981,-1.643 0.442,-3.77 -1.203,-4.749 l -13.469,-8.029 c -0.555,-0.331 -1.166,-0.49 -1.771,-0.49 m -103.373,-1.762 c -0.266,0 -0.537,0.03 -0.807,0.095 l -15.249,3.646 c -1.863,0.445 -3.011,2.315 -2.567,4.177 0.445,1.862 2.311,3.019 4.177,2.566 l 15.249,-3.646 c 1.862,-0.446 3.011,-2.316 2.566,-4.177 -0.381,-1.591 -1.8,-2.661 -3.369,-2.661 m 30.498,-7.295 c -0.266,0 -0.537,0.029 -0.807,0.095 l -15.249,3.649 c -1.863,0.446 -3.011,2.314 -2.566,4.177 0.446,1.858 2.308,3.02 4.177,2.565 l 15.249,-3.649 c 1.861,-0.447 3.01,-2.315 2.565,-4.176 -0.381,-1.591 -1.8,-2.661 -3.369,-2.661 m 45.89,-6.904 c -1.35,0 -2.634,0.792 -3.193,2.112 -0.747,1.762 0.075,3.797 1.836,4.544 0.314,0.133 0.608,0.277 0.87,0.433 l 12.229,7.287 c 1.639,0.979 3.771,0.446 4.75,-1.204 0.982,-1.642 0.442,-3.77 -1.202,-4.75 l -12.241,-7.294 c -0.522,-0.309 -1.086,-0.594 -1.698,-0.853 -0.442,-0.188 -0.9,-0.275 -1.351,-0.275 m -15.392,-0.389 c -0.265,0 -0.537,0.029 -0.807,0.095 l -15.249,3.646 c -1.862,0.445 -3.01,2.316 -2.566,4.177 0.447,1.862 2.313,3.017 4.177,2.565 l 15.249,-3.645 c 1.861,-0.446 3.01,-2.316 2.565,-4.177 -0.38,-1.591 -1.8,-2.661 -3.369,-2.661"
             style="fill:#ffffff;fill-opacity:1;fill-rule:nonzero;stroke:none;stroke-width:2.08332"
             id="path334" />
        </g>
        <g
           id="g336"
           transform="translate(260.8079,125.5471)"
           style="stroke-width:2.08332">
          <path
             d="m 0,0 z m 1.769,-4.493 c -1.059,0 -2.103,0.483 -2.783,1.396 -0.821,1.104 -0.888,2.537 -0.289,3.681 -0.173,0.052 -0.365,0.103 -0.579,0.155 -1.862,0.446 -3.011,2.316 -2.566,4.177 0.447,1.862 2.306,3.02 4.177,2.566 C 4.883,6.25 6.164,3.563 6.471,2.071 6.681,1.049 6.844,-1.568 3.836,-3.807 3.215,-4.27 2.488,-4.493 1.769,-4.493"
             style="fill:#ffffff;fill-opacity:1;fill-rule:nonzero;stroke:none;stroke-width:2.08332"
             id="path338" />
        </g>
        <g
           id="g340"
           transform="translate(160.8138,117.7395)"
           style="stroke-width:2.08332">
          <path
             d="m 0,0 c -3.689,-2.2 -9.063,-3.416 -14.302,-3.416 -2.353,0 -4.679,0.245 -6.814,0.756 l -101.513,24.279 c -0.724,0.173 -1.385,0.378 -2.018,0.596 V -1.82 c 0,0 0.148,-1.857 2.73,-2.566 2.582,-0.709 102.951,-24.715 102.951,-24.715 0,0 7.701,-2.285 15.467,2.344 7.766,4.63 103.452,61.642 104.705,62.411 0.837,0.515 1.927,1.164 1.927,2.776 v 23.043 z"
             style="fill:#ffffff;fill-opacity:1;fill-rule:nonzero;stroke:none;stroke-width:2.08332"
             id="path342" />
        </g>
        <g
           id="g344"
           transform="translate(259.7894,194.3694)"
           style="stroke-width:2.08332">
          <path
             d="m 0,0 -75.552,18.069 c -3.042,-3.398 -6.368,-7.112 -9.844,-10.993 8.975,-10.687 17.897,-21.327 19.016,-22.728 l 5.559,-6.955 -6.266,-6.326 c -4.682,-4.726 -18.171,-13.169 -28.383,-13.169 h -0.001 c -5.876,0 -9.437,2.544 -11.389,4.678 -0.171,0.188 -0.341,0.373 -9.001,10.677 -16.477,-18.129 -18.382,-19.757 -19.358,-20.591 -3.468,-2.964 -7.524,-4.53 -11.732,-4.53 -8.133,0 -14.779,5.891 -18.287,11.404 l -4.239,6.659 5.494,5.669 c 0.891,0.929 7.983,8.85 15.491,17.236 3.075,3.435 6.446,7.2 9.97,11.131 -1.583,1.886 -3.27,3.895 -4.958,5.908 l -78.204,-46.615 c -3.319,-1.978 -2.313,-4.46 2.23,-5.546 l 101.513,-24.279 c 4.544,-1.087 10.914,-0.37 14.233,1.609 L 2.229,-5.546 C 5.549,-3.567 4.543,-1.086 0,0"
             style="fill:#ffffff;fill-opacity:1;fill-rule:nonzero;stroke:none;stroke-width:2.08332"
             id="path346" />
        </g>
        <g
           id="g348"
           transform="translate(192.6536,236.7522)"
           style="stroke-width:2.08332">
          <path
             d="m 0,0 c -2.022,3.179 -8.427,10.333 -15.086,4.642 -2.273,-1.944 -13.255,-13.936 -26.126,-28.185 -8.821,10.488 -15.931,18.928 -16.107,19.122 -4.494,4.911 -20.604,-4.047 -25.291,-8.778 0.405,-0.507 12.33,-14.72 24.462,-29.168 -15.756,-17.56 -30.084,-33.631 -31.518,-35.111 2.022,-3.178 8.427,-10.333 15.086,-4.641 2.274,1.944 13.262,13.942 26.137,28.197 8.807,-10.484 15.908,-18.929 16.096,-19.135 4.494,-4.912 20.604,4.047 25.291,8.779 -1.184,1.481 -12.722,15.235 -24.446,29.185 C -15.752,-17.54 -1.434,-1.479 0,0"
             style="fill:#e34e61;fill-opacity:1;fill-rule:nonzero;stroke:none;stroke-width:2.08332"
             id="path350" />
        </g>
      </g>
    </g>
  </g>
</svg>
