<?xml version="1.0" encoding="UTF-8" standalone="no"?>
<!-- Created with Inkscape (http://www.inkscape.org/) -->

<svg
   version="1.1"
   id="svg453"
   width="355.40292"
   height="273.22266"
   viewBox="0 0 355.40292 273.22266"
   sodipodi:docname="infinity.svg"
   inkscape:version="1.2.1 (9c6d41e410, 2022-07-14)"
   xmlns:inkscape="http://www.inkscape.org/namespaces/inkscape"
   xmlns:sodipodi="http://sodipodi.sourceforge.net/DTD/sodipodi-0.dtd"
   xmlns="http://www.w3.org/2000/svg"
   xmlns:svg="http://www.w3.org/2000/svg">
  <defs
     id="defs457">
    <clipPath
       clipPathUnits="userSpaceOnUse"
       id="clipPath469">
      <path
         d="M 0,300 H 300 V 0 H 0 Z"
         id="path467" />
    </clipPath>
  </defs>
  <sodipodi:namedview
     id="namedview455"
     pagecolor="#ffffff"
     bordercolor="#000000"
     borderopacity="0.25"
     inkscape:showpageshadow="2"
     inkscape:pageopacity="0.0"
     inkscape:pagecheckerboard="0"
     inkscape:deskcolor="#d1d1d1"
     showgrid="false"
     inkscape:zoom="2.755"
     inkscape:cx="135.93466"
     inkscape:cy="136.47913"
     inkscape:window-width="2560"
     inkscape:window-height="1334"
     inkscape:window-x="-11"
     inkscape:window-y="-11"
     inkscape:window-maximized="1"
     inkscape:current-layer="g465">
    <inkscape:page
       x="0"
       y="0"
       id="page459"
       width="355.40292"
       height="273.22266" />
  </sodipodi:namedview>
  <g
     id="g461"
     inkscape:groupmode="layer"
     inkscape:label="Page 1"
     transform="matrix(1.3333333,0,0,-1.3333333,-22.298399,336.61066)">
    <g
       id="g463">
      <g
         id="g465"
         clip-path="url(#clipPath469)">
        <g
           id="g471"
           transform="translate(114.7288,170.8)"
           style="fill:#ffffff">
          <path
             d="m 0,0 c -6.286,-6.971 -15.215,-11 -24.823,-11 -18.472,0 -33.5,15.028 -33.5,33.5 0,18.473 15.028,33.5 33.5,33.5 9.604,0 18.536,-4.028 24.828,-11 h 48.359 v 26.658 c 0,5.524 -4.477,10 -10,10 H -88.005 c -5.522,0 -10,-4.476 -10,-10 v -184.917 c 0,-5.522 4.478,-10 10,-10 H 38.364 c 5.523,0 10,4.478 10,10 V 0 Z"
             style="fill:#ffffff;fill-opacity:1;fill-rule:nonzero;stroke:none"
             id="path473" />
        </g>
        <g
           id="g475"
           transform="translate(229.306,162.1399)">
          <path
             d="m 0,0 v 18.66 h -119.51 c -4.395,-7 -12.389,-11.51 -21.384,-10.953 -11.711,0.725 -21.243,10.261 -21.96,21.973 -0.837,13.651 9.995,24.98 23.454,24.98 8.39,0 15.74,-4.389 19.9,-11 H 0 V 62.33 L 53.97,31.16 Z"
             style="fill:#e34e61;fill-opacity:1;fill-rule:nonzero;stroke:none"
             id="path477" />
        </g>
        <g
           id="g479"
           transform="translate(118.6595,78.6379)"
           style="fill:#000000">
          <path
             d="m 0,0 c -13.894,-1.684 -22.83,7.298 -22.83,7.298 0,0 4.305,6.597 7.72,11.884 8.749,-8.983 23.672,-5.428 26.994,6.127 3.32,11.556 -4.726,20.35 -15.157,20.865 C -12.387,46.625 -20.135,32.065 -23.078,27.111 -34.681,6.526 -43.607,1.303 -54.835,0.976 c -11.228,-0.329 -29.146,9.589 -29.66,28.63 -0.515,19.04 13.099,29.987 26.993,31.67 13.895,1.685 22.83,-7.297 22.83,-7.297 0,0 -4.305,-6.596 -7.719,-11.882 -8.75,8.982 -23.672,5.425 -26.994,-6.129 -3.321,-11.555 4.726,-20.35 15.157,-20.865 9.107,-0.448 16.852,14.09 19.799,19.054 11.602,20.583 20.535,25.818 31.763,26.146 C 8.562,60.63 26.479,50.711 26.993,31.672 27.508,12.632 13.895,1.685 0,0"
             style="fill:#000000;fill-opacity:1;fill-rule:nonzero;stroke:none"
             id="path481" />
        </g>
      </g>
    </g>
  </g>
</svg>
