<?xml version="1.0" encoding="UTF-8" standalone="no"?>
<!-- Created with Inkscape (http://www.inkscape.org/) -->

<svg
   version="1.1"
   id="svg14483"
   width="56.794998pt"
   height="100pt"
   viewBox="0 0 75.726661 133.33333"
   sodipodi:docname="loot.svg"
   inkscape:version="1.2.1 (9c6d41e410, 2022-07-14)"
   xml:space="preserve"
   xmlns:inkscape="http://www.inkscape.org/namespaces/inkscape"
   xmlns:sodipodi="http://sodipodi.sourceforge.net/DTD/sodipodi-0.dtd"
   xmlns="http://www.w3.org/2000/svg"
   xmlns:svg="http://www.w3.org/2000/svg"><defs
     id="defs14487"><clipPath
       clipPathUnits="userSpaceOnUse"
       id="clipPath14499"><path
         d="M 0,300 H 300 V 0 H 0 Z"
         id="path14497" /></clipPath><clipPath
       clipPathUnits="userSpaceOnUse"
       id="clipPath29"><path
         d="M 0,300 H 300 V 0 H 0 Z"
         id="path27" /></clipPath><clipPath
       clipPathUnits="userSpaceOnUse"
       id="clipPath35836"><path
         d="M 0,300 H 300 V 0 H 0 Z"
         id="path35834" /></clipPath><clipPath
       clipPathUnits="userSpaceOnUse"
       id="clipPath27769"><path
         d="M 0,300 H 300 V 0 H 0 Z"
         id="path27767" /></clipPath><clipPath
       clipPathUnits="userSpaceOnUse"
       id="clipPath10817"><path
         d="M 0,300 H 300 V 0 H 0 Z"
         id="path10815" /></clipPath></defs><sodipodi:namedview
     id="namedview14485"
     pagecolor="#ffffff"
     bordercolor="#000000"
     borderopacity="0.25"
     inkscape:showpageshadow="2"
     inkscape:pageopacity="0.0"
     inkscape:pagecheckerboard="0"
     inkscape:deskcolor="#d1d1d1"
     showgrid="false"
     inkscape:zoom="4.9117171"
     inkscape:cx="-62.198208"
     inkscape:cy="52.73105"
     inkscape:window-width="2560"
     inkscape:window-height="1334"
     inkscape:window-x="-11"
     inkscape:window-y="-11"
     inkscape:window-maximized="1"
     inkscape:current-layer="g14491"
     showguides="true"
     inkscape:document-units="pt"><inkscape:page
       x="0"
       y="0"
       id="page14489"
       width="75.726662"
       height="133.33333" /><sodipodi:guide
       position="-63.264279,34.919075"
       orientation="0,-1"
       id="guide1920"
       inkscape:locked="false" /><sodipodi:guide
       position="-39.740378,101.35005"
       orientation="0,-1"
       id="guide1922"
       inkscape:locked="false" /><sodipodi:guide
       position="-40.515362,86.855665"
       orientation="0,-1"
       id="guide64660"
       inkscape:locked="false" /></sodipodi:namedview><g
     id="g14491"
     inkscape:groupmode="layer"
     inkscape:label="Page 1"
     transform="matrix(1.3333333,0,0,-1.3333333,-70.401065,346.75082)"><text
       xml:space="preserve"
       style="font-size:97.22px;line-height:125%;font-family:'Sakkal Majalla';-inkscape-font-specification:'Sakkal Majalla';letter-spacing:0px;word-spacing:0px;fill:none;stroke:#000000;stroke-width:0.75px;stroke-linecap:butt;stroke-linejoin:miter;stroke-opacity:1"
       x="-49.335384"
       y="-187.03842"
       id="text54899"
       transform="scale(1,-1)"><tspan
         sodipodi:role="line"
         id="tspan54897"
         x="-49.335384"
         y="-187.03842"
         style="font-size:97.22px;fill:#000000;fill-opacity:1;stroke:none;stroke-width:0.75px">t</tspan></text><g
       id="g10813"
       clip-path="url(#clipPath10817)"
       transform="matrix(0.24910088,0,0,0.24910088,43.833094,178.10357)"
       style="fill:#ffffff"><g
         id="g10819"
         transform="translate(264.0003,65.6006)"
         style="fill:#ffffff"><path
           d="m 0,0 v -2.54 c 0,-28.721 -51.04,-52 -114,-52 -62.96,0 -114,23.279 -114,52 0,0.239 0.01,0.479 0.02,0.72 v 1.79 c 6.65,-7.83 16.5,-14.83 29.219,-20.63 22.811,-10.401 52.91,-16.13 84.761,-16.13 31.85,0 61.95,5.729 84.76,16.13 C -16.5,-14.851 -6.65,-7.841 0,0"
           style="fill:#ffffff;fill-opacity:1;fill-rule:nonzero;stroke:none"
           id="path10821" /></g><g
         id="g10823"
         transform="translate(264.0003,90.8096)"
         style="fill:#ffffff"><path
           d="m 0,0 c 0,-28.72 -51.04,-52 -114,-52 -62.96,0 -114,23.28 -114,52 0,21.69 29.12,40.28 70.5,48.07 V -10 h 87 V 48.07 C -29.12,40.28 0,21.69 0,0"
           style="fill:#ffffff;fill-opacity:1;fill-rule:nonzero;stroke:none"
           id="path10825" /></g><g
         id="g10827"
         transform="translate(226.2903,156.8198)"
         style="fill:#ffffff"><path
           d="m 0,0 h -42.79 v -66.01 h -67 V 0 h -42.79 l 76.29,132.12 z"
           style="fill:#ffffff;fill-opacity:1;fill-rule:nonzero;stroke:none"
           id="path10829" /></g></g></g></svg>
