<?xml version="1.0" encoding="UTF-8" standalone="no"?>
<!-- Created with Inkscape (http://www.inkscape.org/) -->

<svg
   version="1.1"
   id="svg14483"
   width="68pt"
   height="110pt"
   viewBox="0 0 90.666665 146.66666"
   sodipodi:docname="retaliate.svg"
   inkscape:version="1.2.1 (9c6d41e410, 2022-07-14)"
   xmlns:inkscape="http://www.inkscape.org/namespaces/inkscape"
   xmlns:sodipodi="http://sodipodi.sourceforge.net/DTD/sodipodi-0.dtd"
   xmlns="http://www.w3.org/2000/svg"
   xmlns:svg="http://www.w3.org/2000/svg">
  <defs
     id="defs14487">
    <clipPath
       clipPathUnits="userSpaceOnUse"
       id="clipPath14499">
      <path
         d="M 0,300 H 300 V 0 H 0 Z"
         id="path14497" />
    </clipPath>
    <clipPath
       clipPathUnits="userSpaceOnUse"
       id="clipPath29">
      <path
         d="M 0,300 H 300 V 0 H 0 Z"
         id="path27" />
    </clipPath>
    <clipPath
       clipPathUnits="userSpaceOnUse"
       id="clipPath25521">
      <path
         d="M 0,300 H 300 V 0 H 0 Z"
         id="path25519" />
    </clipPath>
  </defs>
  <sodipodi:namedview
     id="namedview14485"
     pagecolor="#ffffff"
     bordercolor="#000000"
     borderopacity="0.25"
     inkscape:showpageshadow="2"
     inkscape:pageopacity="0.0"
     inkscape:pagecheckerboard="0"
     inkscape:deskcolor="#d1d1d1"
     showgrid="false"
     inkscape:zoom="2.4802237"
     inkscape:cx="110.27231"
     inkscape:cy="94.749518"
     inkscape:window-width="2560"
     inkscape:window-height="1334"
     inkscape:window-x="-11"
     inkscape:window-y="-11"
     inkscape:window-maximized="1"
     inkscape:current-layer="g14491"
     showguides="true"
     inkscape:document-units="pt">
    <inkscape:page
       x="0"
       y="0"
       id="page14489"
       width="90.666664"
       height="146.66666" />
    <sodipodi:guide
       position="-24.291413,48.399998"
       orientation="0,1"
       id="guide1920"
       inkscape:locked="false"
       inkscape:label=""
       inkscape:color="rgb(0,134,229)" />
    <sodipodi:guide
       position="-36.71423,117.73333"
       orientation="0,1"
       id="guide1922"
       inkscape:locked="false"
       inkscape:label=""
       inkscape:color="rgb(0,134,229)" />
  </sodipodi:namedview>
  <g
     id="g14491"
     inkscape:groupmode="layer"
     inkscape:label="Page 1"
     transform="matrix(1.3333333,0,0,-1.3333333,-70.401065,346.75082)">
    <text
       xml:space="preserve"
       style="font-size:100px;line-height:125%;font-family:'Sakkal Majalla';-inkscape-font-specification:'Sakkal Majalla';letter-spacing:0px;word-spacing:0px;fill:#000000;stroke:#000000;stroke-width:0.75px;stroke-linecap:butt;stroke-linejoin:miter;stroke-opacity:1"
       x="-147.29686"
       y="-186.99789"
       id="text54899"
       transform="scale(1,-1)"><tspan
         sodipodi:role="line"
         id="tspan54897"
         x="-147.29686"
         y="-186.99789"
         style="font-size:100px;fill:#000000;fill-opacity:1;stroke:none;stroke-width:0.75px">Ae</tspan></text>
  </g>
  <g
     id="g25515"
     transform="matrix(0.34133333,0,0,-0.34133333,-9.6322681,106.28569)"
     style="stroke-width:3.90625;fill:#ffffff">
    <g
       id="g25517"
       clip-path="url(#clipPath25521)"
       style="stroke-width:3.90625;fill:#ffffff">
      <g
         id="g25523"
         transform="translate(75.9717,104.1563)"
         style="stroke-width:3.90625;fill:#ffffff">
        <path
           d="m 0,0 c 0,0 -33.958,50.147 -33.824,52.814 0.296,5.935 48.066,56.671 56.968,61.122 8.9,4.451 30.263,4.451 44.505,8.011 14.243,3.56 24.923,8.011 29.374,1.781 4.451,-6.231 -3.56,-36.496 -14.242,-41.836 C 64.609,72.805 49.847,73.88 49.847,73.88 l -4.451,-5.34 c 0,0 27.312,-27.88 22.253,-48.957 C 62.309,-2.67 48.066,-25.813 14.242,-34.715 3.052,-37.659 0,0 0,0"
           style="fill:#ffffff;fill-opacity:1;fill-rule:nonzero;stroke:none;stroke-width:3.90625"
           id="path25525" />
      </g>
      <g
         id="g25527"
         transform="translate(152.1328,170.4082)"
         style="stroke-width:3.90625;fill:#ffffff">
        <path
           d="m 0,0 c -1.841,0.436 -3.409,-1.4 -2.671,-3.142 4.943,-11.673 15.918,-45.63 -5.841,-79.131 -18.692,-28.782 -48.957,-29.374 -48.957,-29.374 l 7.418,-35.012 h 61.418 l 5.403,31.185 c 0.396,2.288 3.518,2.704 4.472,0.587 2.574,-5.715 5.82,-15.876 6.607,-31.772 h 41.519 c 0,0 -7.245,42.13 -4.593,59.934 2.077,13.946 28.484,42.43 28.484,42.43 l -10.088,24.627 z"
           style="fill:#ffffff;fill-opacity:1;fill-rule:nonzero;stroke:none;stroke-width:3.90625"
           id="path25529" />
      </g>
      <g
         id="g25531"
         transform="translate(65.9072,205.7207)"
         style="stroke-width:3.90625;fill:#ffffff">
        <path
           d="m 0,0 -5.958,40.855 c 0,0 24.191,23.466 34.715,26.704 7.715,2.374 16.912,-4.451 16.912,-4.451 l 1.78,-35.011 c 0,0 -15.132,-1.78 -20.176,-4.451 C 19.462,19.511 0,0 0,0"
           style="fill:#ffffff;fill-opacity:1;fill-rule:nonzero;stroke:none;stroke-width:3.90625"
           id="path25533" />
      </g>
      <g
         id="g25535"
         transform="translate(129.3789,236.1914)"
         style="stroke-width:3.90625;fill:#ffffff">
        <path
           d="m 0,0 0.594,30.264 c 0,0 20.176,9.501 28.186,9.792 8.012,0.291 19.88,-14.243 19.88,-14.243 0,0 -2.405,-17.802 -6.527,-18.692 C 38.011,6.231 0,0 0,0"
           style="fill:#ffffff;fill-opacity:1;fill-rule:nonzero;stroke:none;stroke-width:3.90625"
           id="path25537" />
      </g>
      <g
         id="g25539"
         transform="translate(192.5781,252.5103)"
         style="stroke-width:3.90625;fill:#ffffff">
        <path
           d="m 0,0 c 0,0 -16.918,-50.498 -18.693,-70.913 -0.593,-6.824 28.484,-12.462 30.264,-8.011 1.781,4.45 19.879,63.198 18.99,70.32 C 29.67,-1.483 8.604,4.154 0,0"
           style="fill:#ffffff;fill-opacity:1;fill-rule:nonzero;stroke:none;stroke-width:3.90625"
           id="path25541" />
      </g>
      <g
         id="g25543"
         transform="translate(231.1494,222.8394)"
         style="stroke-width:3.90625;fill:#ffffff">
        <path
           d="m 0,0 c 0,0 -18.989,-52.517 -16.318,-55.484 5.362,-5.959 24.626,-9.198 29.966,0.593 5.341,9.792 13.056,32.045 13.056,37.386 0,5.34 -4.154,15.131 -7.715,16.912 C 15.009,1.397 5.341,2.374 0,0"
           style="fill:#ffffff;fill-opacity:1;fill-rule:nonzero;stroke:none;stroke-width:3.90625"
           id="path25545" />
      </g>
    </g>
  </g>
</svg>
