<?xml version="1.0" encoding="UTF-8" standalone="no"?>
<!-- Created with Inkscape (http://www.inkscape.org/) -->

<svg
   version="1.1"
   id="svg14483"
   width="167pt"
   height="139pt"
   viewBox="0 0 222.66667 185.33344"
   sodipodi:docname="round_bonus.svg"
   inkscape:version="1.2.1 (9c6d41e410, 2022-07-14)"
   xmlns:inkscape="http://www.inkscape.org/namespaces/inkscape"
   xmlns:sodipodi="http://sodipodi.sourceforge.net/DTD/sodipodi-0.dtd"
   xmlns="http://www.w3.org/2000/svg"
   xmlns:svg="http://www.w3.org/2000/svg">
  <defs
     id="defs14487">
    <clipPath
       clipPathUnits="userSpaceOnUse"
       id="clipPath14499">
      <path
         d="M 0,300 H 300 V 0 H 0 Z"
         id="path14497" />
    </clipPath>
    <clipPath
       clipPathUnits="userSpaceOnUse"
       id="clipPath29">
      <path
         d="M 0,300 H 300 V 0 H 0 Z"
         id="path27" />
    </clipPath>
  </defs>
  <sodipodi:namedview
     id="namedview14485"
     pagecolor="#ffffff"
     bordercolor="#000000"
     borderopacity="0.25"
     inkscape:showpageshadow="2"
     inkscape:pageopacity="0.0"
     inkscape:pagecheckerboard="0"
     inkscape:deskcolor="#d1d1d1"
     showgrid="false"
     inkscape:zoom="1.753783"
     inkscape:cx="23.663133"
     inkscape:cy="6.2721557"
     inkscape:window-width="2560"
     inkscape:window-height="1334"
     inkscape:window-x="-11"
     inkscape:window-y="-11"
     inkscape:window-maximized="1"
     inkscape:current-layer="g14491"
     showguides="true"
     inkscape:document-units="pt">
    <inkscape:page
       x="0"
       y="0"
       id="page14489"
       width="222.66667"
       height="185.33345" />
    <sodipodi:guide
       position="-24.291426,87.066756"
       orientation="0,1"
       id="guide1920"
       inkscape:locked="false"
       inkscape:label=""
       inkscape:color="rgb(0,134,229)" />
    <sodipodi:guide
       position="-36.714243,156.40012"
       orientation="0,1"
       id="guide1922"
       inkscape:locked="false"
       inkscape:label=""
       inkscape:color="rgb(0,134,229)" />
  </sodipodi:namedview>
  <g
     id="g14491"
     inkscape:groupmode="layer"
     inkscape:label="Page 1"
     transform="matrix(1.3333333,0,0,-1.3333333,-70.401065,346.75082)">
    <text
       xml:space="preserve"
       style="font-size:100px;line-height:125%;font-family:'Sakkal Majalla';-inkscape-font-specification:'Sakkal Majalla';letter-spacing:0px;word-spacing:0px;fill:#000000;stroke:#000000;stroke-width:0.75px;stroke-linecap:butt;stroke-linejoin:miter;stroke-opacity:1"
       x="-153.05861"
       y="-131.40367"
       id="text54899"
       transform="scale(1.0000002,-0.99999982)"><tspan
         sodipodi:role="line"
         id="tspan54897"
         x="-153.05861"
         y="-131.40367"
         style="font-size:100px;fill:#000000;fill-opacity:1;stroke:none;stroke-width:0.75px">R</tspan></text>
    <g
       id="g198"
       transform="matrix(0.64,0,0,0.64,120.26896,201.72048)"
       style="stroke-width:1.5625">
      <path
         d="m 0,0 c -6.285,-6.971 -15.214,-11 -24.822,-11 -18.473,0 -33.5,15.028 -33.5,33.5 0,18.473 15.027,33.5 33.5,33.5 9.604,0 18.535,-4.028 24.827,-11 h 48.359 v 26.658 c 0,5.524 -4.476,10 -10,10 H -88.005 c -5.522,0 -10,-4.476 -10,-10 v -184.917 c 0,-5.522 4.478,-10 10,-10 H 38.364 c 5.524,0 10,4.478 10,10 V 0 Z"
         style="fill:#ffffff;fill-opacity:1;fill-rule:nonzero;stroke:none;stroke-width:1.5625"
         id="path200" />
    </g>
    <g
       id="g202"
       transform="matrix(0.64,0,0,0.64,214.47524,216.12048)"
       style="stroke-width:1.5625">
      <path
         d="m 0,0 c 0,-12.97 -10.521,-23.5 -23.5,-23.5 -8.38,0 -15.73,4.391 -19.88,11 h -108.75 c -4.15,-6.609 -11.51,-11 -19.891,-11 -12.969,0 -23.5,10.53 -23.5,23.5 0,12.98 10.531,23.5 23.5,23.5 8.391,0 15.741,-4.39 19.901,-11 h 108.73 c 4.15,6.61 11.51,11 19.89,11 C -10.521,23.5 0,12.98 0,0"
         style="fill:#e34e61;fill-opacity:1;fill-rule:nonzero;stroke:none;stroke-width:1.5625"
         id="path204" />
    </g>
    <g
       id="g206"
       transform="matrix(0.64,0,0,0.64,126.09085,146.28611)"
       style="fill:#000000;stroke-width:1.5625">
      <path
         d="M 0,0 18.534,32.104 H 7.354 c -5.174,18.339 -22.047,31.824 -42.021,31.824 -24.077,0 -43.666,-19.589 -43.666,-43.666 0,-24.078 19.589,-43.667 43.666,-43.667 8.055,0 15.928,2.213 22.769,6.399 3.297,2.019 4.335,6.327 2.316,9.625 -2.018,3.297 -6.325,4.333 -9.624,2.317 -4.641,-2.84 -9.986,-4.341 -15.461,-4.341 -16.357,0 -29.666,13.308 -29.666,29.667 0,16.357 13.309,29.666 29.666,29.666 12.15,0 22.614,-7.344 27.196,-17.824 h -11.064 z"
         style="fill:#000000;fill-opacity:1;fill-rule:nonzero;stroke:none;stroke-width:1.5625"
         id="path208" />
    </g>
  </g>
</svg>
