<?xml version="1.0" encoding="UTF-8" standalone="no"?>
<!-- Created with Inkscape (http://www.inkscape.org/) -->

<svg
   version="1.1"
   id="svg5761"
   width="800"
   height="800"
   viewBox="0 0 800 800"
   sodipodi:docname="any_element.svg"
   inkscape:version="1.2.1 (9c6d41e410, 2022-07-14)"
   xmlns:inkscape="http://www.inkscape.org/namespaces/inkscape"
   xmlns:sodipodi="http://sodipodi.sourceforge.net/DTD/sodipodi-0.dtd"
   xmlns="http://www.w3.org/2000/svg"
   xmlns:svg="http://www.w3.org/2000/svg">
  <defs
     id="defs5765">
    <clipPath
       clipPathUnits="userSpaceOnUse"
       id="clipPath5775">
      <path
         d="M 0,600 H 600 V 0 H 0 Z"
         id="path5773" />
    </clipPath>
  </defs>
  <sodipodi:namedview
     id="namedview5763"
     pagecolor="#ffffff"
     bordercolor="#000000"
     borderopacity="0.25"
     inkscape:showpageshadow="2"
     inkscape:pageopacity="0.0"
     inkscape:pagecheckerboard="0"
     inkscape:deskcolor="#d1d1d1"
     showgrid="false"
     inkscape:zoom="1.28375"
     inkscape:cx="285.49172"
     inkscape:cy="399.61052"
     inkscape:window-width="2560"
     inkscape:window-height="1334"
     inkscape:window-x="-11"
     inkscape:window-y="-11"
     inkscape:window-maximized="1"
     inkscape:current-layer="g5767" />
  <g
     id="g5767"
     inkscape:groupmode="layer"
     inkscape:label="Element Icons11"
     transform="matrix(1.3333333,0,0,-1.3333333,0,800)">
    <g
       id="g5769">
      <g
         id="g5771"
         clip-path="url(#clipPath5775)">
        <g
           id="g5777"
           transform="translate(300,28)">
          <path
             d="M 0,0 C -72.653,0 -140.959,28.293 -192.333,79.667 -243.707,131.041 -272,199.347 -272,272 c 0,72.654 28.293,140.959 79.667,192.333 C -140.959,515.707 -72.653,544 0,544 72.653,544 140.959,515.707 192.333,464.333 243.707,412.959 272,344.654 272,272 272,199.347 243.707,131.041 192.333,79.667 140.959,28.293 72.653,0 0,0"
             style="fill:#ffffff;fill-opacity:1;fill-rule:nonzero;stroke:none"
             id="path5779" />
        </g>
        <g
           id="g5781"
           transform="translate(300,580)">
          <path
             d="m 0,0 c -37.793,0 -74.463,-7.405 -108.994,-22.01 -33.344,-14.104 -63.286,-34.291 -88.996,-60 -25.709,-25.71 -45.897,-55.652 -59.999,-88.996 C -272.595,-205.537 -280,-242.207 -280,-280 c 0,-37.793 7.405,-74.464 22.011,-108.993 14.102,-33.345 34.29,-63.287 59.999,-88.997 25.71,-25.709 55.652,-45.897 88.996,-59.999 C -74.463,-552.595 -37.793,-560 0,-560 c 37.793,0 74.463,7.405 108.994,22.011 33.344,14.102 63.286,34.29 88.996,59.999 25.709,25.71 45.897,55.652 60,88.997 14.605,34.529 22.01,71.2 22.01,108.993 0,37.793 -7.405,74.463 -22.01,108.994 -14.103,33.344 -34.291,63.286 -60,88.996 -25.71,25.709 -55.652,45.896 -88.996,60 C 74.463,-7.405 37.793,0 0,0 m 0,-16 c 145.803,0 264,-118.197 264,-264 0,-145.803 -118.197,-264 -264,-264 -145.803,0 -264,118.197 -264,264 0,145.803 118.197,264 264,264"
             style="fill:#ffffff;fill-opacity:1;fill-rule:nonzero;stroke:none"
             id="path5783" />
        </g>
        <g
           id="g5785"
           transform="translate(300,300)">
          <path
             d="M 0,0 C 0,0 -160.142,-93.372 -228.669,-132.022 -274.171,-53.04 -277.485,47.382 -228.631,132 -174.504,100.75 0,0 0,0"
             style="fill:#202830;fill-opacity:1;fill-rule:nonzero;stroke:none"
             id="path5787" />
        </g>
        <g
           id="g5789"
           transform="translate(300,300)">
          <path
             d="M 0,0 C 0,0 0.792,-185.372 0.001,-264.044 -91.152,-263.959 -179.776,-216.618 -228.631,-132 -174.504,-100.75 0,0 0,0"
             style="fill:#eca610;fill-opacity:1;fill-rule:nonzero;stroke:none"
             id="path5791" />
        </g>
        <g
           id="g5793"
           transform="translate(300,300)">
          <path
             d="M 0,0 C 0,0 160.934,-92 228.669,-132.021 183.02,-210.919 97.708,-264 0,-264 Z"
             style="fill:#7da82a;fill-opacity:1;fill-rule:nonzero;stroke:none"
             id="path5795" />
        </g>
        <g
           id="g5797"
           transform="translate(300,300)">
          <path
             d="M 0,0 C 0,0 160.141,93.373 228.668,132.022 274.171,53.04 277.485,-47.382 228.631,-132 174.504,-100.75 0,0 0,0"
             style="fill:#e2421f;fill-opacity:1;fill-rule:nonzero;stroke:none"
             id="path5799" />
        </g>
        <g
           id="g5801"
           transform="translate(300,300)">
          <path
             d="M 0,0 C 0,0 -0.792,185.373 -0.001,264.044 91.152,263.959 179.776,216.618 228.631,132 174.504,100.75 0,0 0,0"
             style="fill:#56c8ef;fill-opacity:1;fill-rule:nonzero;stroke:none"
             id="path5803" />
        </g>
        <g
           id="g5805"
           transform="translate(300,300)">
          <path
             d="M 0,0 C 0,0 -160.934,92 -228.669,132.021 -183.02,210.919 -97.708,264 0,264 Z"
             style="fill:#98b0b5;fill-opacity:1;fill-rule:nonzero;stroke:none"
             id="path5807" />
        </g>
      </g>
    </g>
  </g>
</svg>
