<?xml version="1.0" encoding="UTF-8" standalone="no"?>
<!-- Created with Inkscape (http://www.inkscape.org/) -->

<svg
   version="1.1"
   id="svg14483"
   width="68pt"
   height="110pt"
   viewBox="0 0 90.666665 146.66666"
   sodipodi:docname="attack.svg"
   inkscape:version="1.2.1 (9c6d41e410, 2022-07-14)"
   xmlns:inkscape="http://www.inkscape.org/namespaces/inkscape"
   xmlns:sodipodi="http://sodipodi.sourceforge.net/DTD/sodipodi-0.dtd"
   xmlns="http://www.w3.org/2000/svg"
   xmlns:svg="http://www.w3.org/2000/svg">
  <defs
     id="defs14487">
    <clipPath
       clipPathUnits="userSpaceOnUse"
       id="clipPath14499">
      <path
         d="M 0,300 H 300 V 0 H 0 Z"
         id="path14497" />
    </clipPath>
    <clipPath
       clipPathUnits="userSpaceOnUse"
       id="clipPath29">
      <path
         d="M 0,300 H 300 V 0 H 0 Z"
         id="path27" />
    </clipPath>
  </defs>
  <sodipodi:namedview
     id="namedview14485"
     pagecolor="#ffffff"
     bordercolor="#000000"
     borderopacity="0.25"
     inkscape:showpageshadow="2"
     inkscape:pageopacity="0.0"
     inkscape:pagecheckerboard="0"
     inkscape:deskcolor="#d1d1d1"
     showgrid="false"
     inkscape:zoom="4.9604474"
     inkscape:cx="-23.082595"
     inkscape:cy="60.881605"
     inkscape:window-width="2560"
     inkscape:window-height="1334"
     inkscape:window-x="-11"
     inkscape:window-y="-11"
     inkscape:window-maximized="1"
     inkscape:current-layer="g14491"
     showguides="true"
     inkscape:document-units="pt">
    <inkscape:page
       x="0"
       y="0"
       id="page14489"
       width="90.666664"
       height="146.66666" />
    <sodipodi:guide
       position="-24.291413,48.399998"
       orientation="0,1"
       id="guide1920"
       inkscape:locked="false"
       inkscape:label=""
       inkscape:color="rgb(0,134,229)" />
    <sodipodi:guide
       position="-36.71423,117.73333"
       orientation="0,1"
       id="guide1922"
       inkscape:locked="false"
       inkscape:label=""
       inkscape:color="rgb(0,134,229)" />
    <sodipodi:guide
       position="-39.219295,124.8974"
       orientation="0,-1"
       id="guide42601"
       inkscape:locked="false" />
  </sodipodi:namedview>
  <g
     id="g14491"
     inkscape:groupmode="layer"
     inkscape:label="Page 1"
     transform="matrix(1.3333333,0,0,-1.3333333,-70.401065,346.75082)">
    <text
       xml:space="preserve"
       style="font-size:100px;line-height:125%;font-family:'Sakkal Majalla';-inkscape-font-specification:'Sakkal Majalla';letter-spacing:0px;word-spacing:0px;fill:#000000;stroke:#000000;stroke-width:0.75px;stroke-linecap:butt;stroke-linejoin:miter;stroke-opacity:1"
       x="-53.710434"
       y="-186.99789"
       id="text54899"
       transform="scale(1,-1)"><tspan
         sodipodi:role="line"
         id="tspan54897"
         x="-53.710434"
         y="-186.99789"
         style="font-size:100px;fill:#000000;fill-opacity:1;stroke:none;stroke-width:0.75px">k</tspan></text>
    <g
       id="g5321"
       transform="matrix(0.82587306,0,0,-0.82587306,52.801007,249.76312)"
       style="fill:#ffffff;fill-opacity:1">
      <g
         id="g19"
         transform="matrix(0.35277776,0,0,-0.35277778,24.197037,74.635075)"
         style="fill:#ffffff;fill-opacity:1">
        <path
           d="m 0,0 -6.907,-4.933 -50.887,46.962 4.363,7.281 13.994,-12.914 87.349,94.649 29.862,6.833 -4.419,-30.314 -87.348,-94.65 z"
           style="fill:#ffffff;fill-opacity:1;fill-rule:nonzero;stroke:none"
           id="path21" />
      </g>
      <g
         id="g25"
         clip-path="url(#clipPath29)"
         transform="matrix(0.35277776,0,0,-0.35277778,-11.748193,93.707127)"
         style="fill:#ffffff;fill-opacity:1">
        <g
           id="g31"
           transform="translate(72.1644,62.1807)"
           style="fill:#ffffff;fill-opacity:1">
          <path
             d="m 0,0 -25.629,-27.772 c 0,0 -4.416,-0.636 -8.964,3.561 -4.548,4.196 -4.266,8.648 -4.266,8.648 L -13.23,12.21 Z"
             style="fill:#ffffff;fill-opacity:1;fill-rule:nonzero;stroke:none"
             id="path33" />
        </g>
        <g
           id="g35"
           transform="translate(96.7475,153.3145)"
           style="fill:#ffffff;fill-opacity:1">
          <path
             d="m 0,0 10.053,6.239 -18.657,23.442 38.414,4.15 1.734,34.457 22.403,-14.066 35.487,17.186 4.746,-39.734 26.798,-6.716 -22.185,-13.186 15.945,-28.411 -30.957,0.945 -2.706,-38.642 -24.357,18.687 -5.471,-10.492 42.111,-63.102 6.44,76.617 62.587,-21.949 -38.566,61.081 46.132,21.026 -56.652,19.033 -3.414,65.747 L 54.943,73.555 9.382,106.114 11.979,51.79 -62.572,48.581 Z"
             style="fill:#ffffff;fill-opacity:1;fill-rule:nonzero;stroke:none"
             id="path37" />
        </g>
      </g>
    </g>
  </g>
</svg>
