<?xml version="1.0" encoding="UTF-8" standalone="no"?>
<svg
   viewBox="0 0 771.59495 771.59501"
   version="1.1"
   id="svg720"
   sodipodi:docname="brittle.svg"
   width="771.59497"
   height="771.59497"
   inkscape:version="1.2.1 (9c6d41e410, 2022-07-14)"
   xmlns:inkscape="http://www.inkscape.org/namespaces/inkscape"
   xmlns:sodipodi="http://sodipodi.sourceforge.net/DTD/sodipodi-0.dtd"
   xmlns="http://www.w3.org/2000/svg"
   xmlns:svg="http://www.w3.org/2000/svg">
  <sodipodi:namedview
     id="namedview722"
     pagecolor="#ffffff"
     bordercolor="#000000"
     borderopacity="0.25"
     inkscape:showpageshadow="2"
     inkscape:pageopacity="0.0"
     inkscape:pagecheckerboard="0"
     inkscape:deskcolor="#d1d1d1"
     showgrid="false"
     inkscape:zoom="0.64336871"
     inkscape:cx="174.86085"
     inkscape:cy="568.88063"
     inkscape:window-width="2560"
     inkscape:window-height="1334"
     inkscape:window-x="-11"
     inkscape:window-y="-11"
     inkscape:window-maximized="1"
     inkscape:current-layer="svg720" />
  <defs
     id="defs706">
    <style
       id="style701">.cls-1{fill:none;}.cls-2{fill:#2595a0;}.cls-3{fill:#fff;}.cls-4{clip-path:url(#clip-path);}</style>
    <clipPath
       id="clip-path"
       transform="translate(0 0)">
      <path
         class="cls-1"
         d="M 289.34,0 A 19.54,19.54 0 0 0 275.45,5.78 L 5.77,275.42 a 19.73,19.73 0 0 0 0,27.85 l 269.68,269.65 a 19.64,19.64 0 0 0 27.82,0 L 573,303.27 a 19.76,19.76 0 0 0 0,-27.85 L 303.27,5.78 A 19.61,19.61 0 0 0 289.34,0 Z"
         id="path703" />
    </clipPath>
  </defs>
  <g
     id="Layer_2"
     data-name="Layer 2"
     transform="matrix(1.326,0,0,1.326,0.19321813,0.19699105)"
     style="stroke-width:0.754148">
    <g
       id="Brittle"
       style="stroke-width:0.754148">
      <path
         class="cls-2"
         d="m 289.35,573.68 a 14.57,14.57 0 0 1 -10.39,-4.3 L 9.32,299.74 a 14.69,14.69 0 0 1 0,-20.77 L 279,9.29 a 14.69,14.69 0 0 1 20.77,0 L 569.38,279 a 14.69,14.69 0 0 1 0,20.77 L 299.73,569.38 a 14.53,14.53 0 0 1 -10.38,4.3"
         id="path708"
         style="stroke-width:0.754148" />
      <path
         class="cls-3"
         d="m 289.35,10 a 9.62,9.62 0 0 1 6.84,2.82 l 269.65,269.69 a 9.67,9.67 0 0 1 0,13.68 L 296.19,565.84 a 9.63,9.63 0 0 1 -13.68,0 L 12.86,296.19 a 9.67,9.67 0 0 1 0,-13.68 L 282.51,12.83 A 9.62,9.62 0 0 1 289.35,10 m 0,-10 A 19.68,19.68 0 0 0 275.42,5.78 L 5.78,275.43 a 19.61,19.61 0 0 0 0,27.81 l 269.64,269.68 a 19.74,19.74 0 0 0 27.85,0 L 572.92,303.24 a 19.63,19.63 0 0 0 0,-27.81 L 303.27,5.78 A 19.65,19.65 0 0 0 289.35,0"
         id="path710"
         style="stroke-width:0.754148" />
      <g
         class="cls-4"
         clip-path="url(#clip-path)"
         id="g714"
         style="stroke-width:0.754148">
        <path
           class="cls-3"
           d="M 290.28,190.14 280,197.43 255.45,182 l -13.68,-55.2 27.57,7 17.3,18.91 z m 91.14,166.79 h 28.95 l 3,-40.34 -46.94,-12.75 -14.92,20 L 355,348 Z m -98.19,87.48 22.56,-13.89 -5.23,-21.66 -18.7,-26.41 -16.86,10.7 -17.77,42.15 z m 17.31,-385.73 10.73,51.32 -4.13,32.8 21.66,26.6 49.2,-22.08 20.07,-36.43 -64.75,-64.76 z m -99.22,31.53 59.57,13.59 24.87,20.28 L 281.63,61.19 305.2,18 302.79,15.58 a 19,19 0 0 0 -26.86,0 z M 501.65,214.44 473.24,186 l -22.76,14.4 6.6,11.83 z m -264,247.3 -14.42,48.65 52.7,52.7 a 19,19 0 0 0 26.86,0 l 38.55,-38.55 c -12,-18.45 -35.78,-55.75 -35.78,-55.75 z m 155,-286 1.58,35.76 -26.88,25.54 5,6.36 48.75,-30.53 33.85,-45.19 -32.19,-32.19 z m -20.29,-6.38 -44.67,40.33 1.62,19.6 16.12,8.71 29.85,-34.28 z m 48.3,216.44 -71.76,-9.56 -18,-14.82 -17.53,34.18 14.34,20.05 -7.29,42.6 39,48.27 84.44,-84.52 z m -212.39,51.53 31.22,-66.74 -36,-50.82 h -38.27 l -9.56,53.09 -39.47,30.51 89.11,89.1 z m -24.14,-258.58 26.2,28 31.22,10 15.45,-16.58 -19.36,-16 -14.82,-69.94 -38.19,-7.41 -28,28 z m 343.78,61.94 -75.86,-12.69 -37.14,11.17 -47.62,34.63 2.51,14.34 50.58,15.71 40.62,-19.39 60.14,3.65 46.29,-5.59 a 19.18,19.18 0 0 0 -4.27,-6.62 z m -42.82,75.9 -55.09,-1.13 2.27,49.68 27.93,40.58 93,-93 z M 133.78,355.77 139.25,326.41 98.92,340.5 64.5,321.59 40,327.21 97.3,384.48 Z M 180.25,207.91 142,234.56 97.78,243.47 V 284 l 19.39,23.48 28.47,-7.08 61.26,-8.4 20.52,-34.29 -16.42,-28.13 -24.86,-5.26 z m -74.74,8.9 29.15,-5 34,-26.2 L 140.51,151 88.67,202.84 Z m -55.8,78.19 29.16,0.89 -7.54,-27.78 c 0,0 -3.14,-26 -5.1,-42.8 L 16.1,275.4 Z"
           id="path712"
           style="stroke-width:0.754148" />
      </g>
      <path
         class="cls-3"
         d="m 303.48,264.4 a 132.6,132.6 0 0 1 -16.71,-32 1,1 0 0 0 -1.82,0 134.67,134.67 0 0 1 -16.75,32 c -12.24,17 -18.46,25.21 -18.46,39.48 a 36.11,36.11 0 0 0 72.21,0 c 0,-14.27 -6.19,-22.53 -18.47,-39.48"
         id="path716"
         style="stroke-width:0.754148" />
    </g>
  </g>
</svg>
