<?xml version="1.0" encoding="UTF-8" standalone="no"?>
<!-- Created with Inkscape (http://www.inkscape.org/) -->

<svg
   version="1.1"
   id="svg5602"
   width="800"
   height="800"
   viewBox="0 0 800 800"
   sodipodi:docname="dark.svg"
   inkscape:version="1.2.1 (9c6d41e410, 2022-07-14)"
   xmlns:inkscape="http://www.inkscape.org/namespaces/inkscape"
   xmlns:sodipodi="http://sodipodi.sourceforge.net/DTD/sodipodi-0.dtd"
   xmlns="http://www.w3.org/2000/svg"
   xmlns:svg="http://www.w3.org/2000/svg">
  <defs
     id="defs5606">
    <clipPath
       clipPathUnits="userSpaceOnUse"
       id="clipPath5616">
      <path
         d="M 0,600 H 600 V 0 H 0 Z"
         id="path5614" />
    </clipPath>
  </defs>
  <sodipodi:namedview
     id="namedview5604"
     pagecolor="#ffffff"
     bordercolor="#000000"
     borderopacity="0.25"
     inkscape:showpageshadow="2"
     inkscape:pageopacity="0.0"
     inkscape:pagecheckerboard="0"
     inkscape:deskcolor="#d1d1d1"
     showgrid="false"
     inkscape:zoom="1.28375"
     inkscape:cx="285.49172"
     inkscape:cy="399.61052"
     inkscape:window-width="2560"
     inkscape:window-height="1334"
     inkscape:window-x="-11"
     inkscape:window-y="-11"
     inkscape:window-maximized="1"
     inkscape:current-layer="g5608" />
  <g
     id="g5608"
     inkscape:groupmode="layer"
     inkscape:label="Element Icons10"
     transform="matrix(1.3333333,0,0,-1.3333333,0,800)">
    <g
       id="g5610">
      <g
         id="g5612"
         clip-path="url(#clipPath5616)">
        <g
           id="g5618"
           transform="translate(300,28)">
          <path
             d="M 0,0 C -72.653,0 -140.959,28.293 -192.333,79.667 -243.707,131.041 -272,199.347 -272,272 c 0,72.653 28.293,140.959 79.667,192.333 C -140.959,515.707 -72.653,544 0,544 72.653,544 140.959,515.707 192.333,464.333 243.707,412.959 272,344.653 272,272 272,199.347 243.707,131.041 192.333,79.667 140.959,28.293 72.653,0 0,0"
             style="fill:#202830;fill-opacity:1;fill-rule:nonzero;stroke:none"
             id="path5620" />
        </g>
        <g
           id="g5622"
           transform="translate(300,580)">
          <path
             d="m 0,0 c -37.793,0 -74.464,-7.405 -108.993,-22.011 -33.345,-14.102 -63.287,-34.29 -88.997,-59.999 -25.709,-25.71 -45.897,-55.652 -59.999,-88.997 C -272.595,-205.536 -280,-242.207 -280,-280 c 0,-37.793 7.405,-74.464 22.011,-108.993 14.102,-33.345 34.29,-63.287 59.999,-88.997 25.71,-25.709 55.652,-45.896 88.997,-59.999 C -74.464,-552.595 -37.793,-560 0,-560 c 37.793,0 74.464,7.405 108.993,22.011 33.345,14.103 63.287,34.29 88.997,59.999 25.709,25.71 45.897,55.652 59.999,88.997 14.606,34.529 22.011,71.2 22.011,108.993 0,37.793 -7.405,74.464 -22.011,108.993 -14.102,33.345 -34.29,63.287 -59.999,88.997 -25.71,25.709 -55.652,45.897 -88.997,59.999 C 74.464,-7.405 37.793,0 0,0 m 0,-16 c 145.803,0 264,-118.196 264,-264 0,-145.803 -118.197,-264 -264,-264 -145.803,0 -264,118.197 -264,264 0,145.804 118.197,264 264,264"
             style="fill:#ffffff;fill-opacity:1;fill-rule:nonzero;stroke:none"
             id="path5624" />
        </g>
        <g
           id="g5626"
           transform="translate(345.8301,154.2148)">
          <path
             d="m 0,0 c -8.87,0 -17.561,0.8 -26,2.32 6.06,2.781 11.92,5.941 17.54,9.441 1.786,1.112 3.539,2.271 5.276,3.453 73.09,1.203 131.963,59.194 131.963,130.566 0,71.385 -58.877,129.378 -131.971,130.577 -1.739,1.181 -3.492,2.34 -5.279,3.454 -5.619,3.5 -11.469,6.659 -17.529,9.439 8.439,1.521 17.13,2.32 26,2.32 80.38,0 145.779,-65.4 145.779,-145.79 C 145.779,65.4 80.38,0 0,0 M -45.83,7.38 C -52.25,5.24 -58.88,3.55 -65.66,2.32 -74.1,0.8 -82.78,0 -91.65,0 c -80.39,0 -145.79,65.4 -145.79,145.78 0,80.39 65.4,145.79 145.79,145.79 8.87,0 17.55,-0.799 25.99,-2.32 6.78,-1.229 13.41,-2.92 19.83,-5.06 6.019,-1.99 11.87,-4.379 17.51,-7.11 48.75,-23.61 82.45,-73.59 82.45,-131.3 0,-57.7 -33.7,-107.679 -82.45,-131.29 -5.64,-2.729 -11.491,-5.12 -17.51,-7.11 M 0,303.57 c -15.93,0 -31.311,-2.37 -45.82,-6.79 -14.51,4.42 -29.901,6.79 -45.83,6.79 -87.01,0 -157.79,-70.78 -157.79,-157.79 0,-87 70.78,-157.78 157.79,-157.78 15.929,0 31.32,2.37 45.83,6.79 C -31.311,-9.63 -15.93,-12 0,-12 87,-12 157.779,58.78 157.779,145.78 157.779,232.79 87,303.57 0,303.57"
             style="fill:#ffffff;fill-opacity:1;fill-rule:nonzero;stroke:none"
             id="path5628" />
        </g>
      </g>
    </g>
  </g>
</svg>
