<?xml version="1.0" encoding="UTF-8" standalone="no"?>
<!-- Created with Inkscape (http://www.inkscape.org/) -->

<svg
   version="1.1"
   id="svg5284"
   width="800"
   height="800"
   viewBox="0 0 800 800"
   sodipodi:docname="earth.svg"
   inkscape:version="1.2.1 (9c6d41e410, 2022-07-14)"
   xmlns:inkscape="http://www.inkscape.org/namespaces/inkscape"
   xmlns:sodipodi="http://sodipodi.sourceforge.net/DTD/sodipodi-0.dtd"
   xmlns="http://www.w3.org/2000/svg"
   xmlns:svg="http://www.w3.org/2000/svg">
  <defs
     id="defs5288">
    <clipPath
       clipPathUnits="userSpaceOnUse"
       id="clipPath5298">
      <path
         d="M 0,600 H 600 V 0 H 0 Z"
         id="path5296" />
    </clipPath>
  </defs>
  <sodipodi:namedview
     id="namedview5286"
     pagecolor="#ffffff"
     bordercolor="#000000"
     borderopacity="0.25"
     inkscape:showpageshadow="2"
     inkscape:pageopacity="0.0"
     inkscape:pagecheckerboard="0"
     inkscape:deskcolor="#d1d1d1"
     showgrid="false"
     inkscape:zoom="1.28375"
     inkscape:cx="285.49172"
     inkscape:cy="399.61052"
     inkscape:window-width="2560"
     inkscape:window-height="1334"
     inkscape:window-x="-11"
     inkscape:window-y="-11"
     inkscape:window-maximized="1"
     inkscape:current-layer="g5290" />
  <g
     id="g5290"
     inkscape:groupmode="layer"
     inkscape:label="Element Icons8"
     transform="matrix(1.3333333,0,0,-1.3333333,0,800)">
    <g
       id="g5292">
      <g
         id="g5294"
         clip-path="url(#clipPath5298)">
        <g
           id="g5300"
           transform="translate(300,28)">
          <path
             d="M 0,0 C -72.654,0 -140.959,28.293 -192.333,79.667 -243.707,131.041 -272,199.347 -272,272 c 0,72.653 28.293,140.959 79.667,192.333 C -140.959,515.707 -72.654,544 0,544 72.653,544 140.959,515.707 192.333,464.333 243.707,412.959 272,344.653 272,272 272,199.347 243.707,131.041 192.333,79.667 140.959,28.293 72.653,0 0,0"
             style="fill:#7da82a;fill-opacity:1;fill-rule:nonzero;stroke:none"
             id="path5302" />
        </g>
        <g
           id="g5304"
           transform="translate(300,580)">
          <path
             d="m 0,0 c -37.793,0 -74.463,-7.405 -108.994,-22.011 -33.344,-14.102 -63.286,-34.29 -88.996,-59.999 -25.709,-25.71 -45.896,-55.652 -60,-88.997 -14.605,-34.529 -22.01,-71.2 -22.01,-108.993 0,-37.793 7.405,-74.464 22.01,-108.993 14.104,-33.345 34.291,-63.287 60,-88.997 25.71,-25.709 55.652,-45.896 88.996,-59.999 C -74.463,-552.595 -37.793,-560 0,-560 c 37.793,0 74.464,7.405 108.993,22.011 33.345,14.103 63.287,34.29 88.997,59.999 25.709,25.71 45.897,55.652 59.999,88.997 14.606,34.529 22.011,71.2 22.011,108.993 0,37.793 -7.405,74.464 -22.011,108.993 -14.102,33.345 -34.29,63.287 -59.999,88.997 -25.71,25.709 -55.652,45.897 -88.997,59.999 C 74.464,-7.405 37.793,0 0,0 m 0,-16 c 145.803,0 264,-118.196 264,-264 0,-145.803 -118.197,-264 -264,-264 -145.803,0 -264,118.197 -264,264 0,145.804 118.197,264 264,264"
             style="fill:#ffffff;fill-opacity:1;fill-rule:nonzero;stroke:none"
             id="path5306" />
        </g>
        <g
           id="g5308"
           transform="translate(191.8486,205.1455)">
          <path
             d="m 0,0 c -0.423,-4 -4.892,-6.179 -8.264,-3.987 -24.283,15.779 -85.571,80.677 -11.571,162.809 73.487,81.563 169.567,37.861 265.702,95.873 2.907,1.755 6.665,0.165 7.401,-3.15 13.134,-59.172 20.961,-187.976 -39.103,-247.223 -73.5,-72.5 -133.5,-40.5 -166,-29 -1.5,-18 4.501,-41.921 9.501,-58.421 5,-16.5 -27.001,-21.079 -31.001,-18.079 -4,3 -18.611,83.753 18.5,133 47.5,63.032 163,118 166.5,162.5 -22.5,-20 -51.809,-46.518 -129,-89.5 C 14.221,66.711 2.036,19.224 0,0"
             style="fill:#ffffff;fill-opacity:1;fill-rule:nonzero;stroke:none"
             id="path5310" />
        </g>
      </g>
    </g>
  </g>
</svg>
