<?xml version="1.0" encoding="UTF-8" standalone="no"?>
<!-- Created with Inkscape (http://www.inkscape.org/) -->

<svg
   version="1.1"
   id="svg22621"
   width="771.59534"
   height="771.59332"
   viewBox="0 0 771.59534 771.59332"
   sodipodi:docname="invisible.svg"
   inkscape:version="1.2.1 (9c6d41e410, 2022-07-14)"
   xmlns:inkscape="http://www.inkscape.org/namespaces/inkscape"
   xmlns:sodipodi="http://sodipodi.sourceforge.net/DTD/sodipodi-0.dtd"
   xmlns="http://www.w3.org/2000/svg"
   xmlns:svg="http://www.w3.org/2000/svg">
  <defs
     id="defs22625">
    <clipPath
       clipPathUnits="userSpaceOnUse"
       id="clipPath22637">
      <path
         d="M 0,600 H 600 V 0 H 0 Z"
         id="path22635" />
    </clipPath>
  </defs>
  <sodipodi:namedview
     id="namedview22623"
     pagecolor="#ffffff"
     bordercolor="#000000"
     borderopacity="0.25"
     inkscape:showpageshadow="2"
     inkscape:pageopacity="0.0"
     inkscape:pagecheckerboard="0"
     inkscape:deskcolor="#d1d1d1"
     showgrid="false"
     inkscape:zoom="1.37125"
     inkscape:cx="385.7794"
     inkscape:cy="386.14403"
     inkscape:window-width="2560"
     inkscape:window-height="1334"
     inkscape:window-x="-11"
     inkscape:window-y="-11"
     inkscape:window-maximized="1"
     inkscape:current-layer="g22629">
    <inkscape:page
       x="0"
       y="0"
       id="page22627"
       width="771.59534"
       height="771.59332" />
  </sodipodi:namedview>
  <g
     id="g22629"
     inkscape:groupmode="layer"
     inkscape:label="Page 1"
     transform="matrix(1.3333333,0,0,-1.3333333,-14.202333,785.79665)">
    <g
       id="g22631">
      <g
         id="g22633"
         clip-path="url(#clipPath22637)">
        <g
           id="g22639"
           transform="translate(300,15.6523)">
          <path
             d="m 0,0 c -3.922,0 -7.608,1.527 -10.382,4.3 l -269.666,269.666 c -5.723,5.724 -5.723,15.039 0,20.763 l 269.666,269.667 c 2.774,2.772 6.46,4.299 10.382,4.299 3.922,0 7.608,-1.527 10.382,-4.299 L 280.048,294.729 c 5.723,-5.724 5.723,-15.039 0,-20.763 L 10.382,4.3 C 7.608,1.527 3.922,0 0,0"
             style="fill:#191715;fill-opacity:1;fill-rule:nonzero;stroke:none"
             id="path22641" />
        </g>
        <g
           id="g22643"
           transform="translate(300,589.3475)">
          <path
             d="m 0,0 c -5.037,0 -10.073,-1.921 -13.917,-5.765 l -269.666,-269.666 c -7.687,-7.686 -7.687,-20.147 0,-27.834 l 269.666,-269.666 c 3.844,-3.842 8.88,-5.764 13.917,-5.764 5.037,0 10.073,1.922 13.917,5.764 l 269.666,269.666 c 7.687,7.687 7.687,20.148 0,27.834 L 13.917,-5.765 C 10.073,-1.921 5.037,0 0,0 m 0,-10 c 2.586,0 5.017,-1.007 6.846,-2.835 l 269.667,-269.667 c 1.828,-1.828 2.835,-4.26 2.835,-6.846 0,-2.586 -1.007,-5.016 -2.835,-6.845 L 6.846,-565.859 c -1.829,-1.829 -4.26,-2.836 -6.846,-2.836 -2.586,0 -5.017,1.007 -6.846,2.836 l -269.667,269.666 c -1.828,1.829 -2.835,4.259 -2.835,6.845 0,2.586 1.007,5.018 2.835,6.846 L -6.846,-12.835 C -5.017,-11.007 -2.586,-10 0,-10"
             style="fill:#ffffff;fill-opacity:1;fill-rule:nonzero;stroke:none"
             id="path22645" />
        </g>
        <g
           id="g22647"
           transform="translate(342.4395,433.6796)">
          <path
             d="m 0,0 c 0,-23.438 -19.001,-42.438 -42.439,-42.438 -23.439,0 -42.44,19 -42.44,42.438 0,23.439 19.001,42.439 42.44,42.439 C -19.001,42.439 0,23.439 0,0"
             style="fill:#191715;fill-opacity:1;fill-rule:nonzero;stroke:none"
             id="path22649" />
        </g>
        <g
           id="g22651"
           transform="translate(342.4395,433.6796)">
          <path
             d="m 0,0 c 0,-23.438 -19.001,-42.438 -42.439,-42.438 -23.439,0 -42.44,19 -42.44,42.438 0,23.439 19.001,42.439 42.44,42.439 C -19.001,42.439 0,23.439 0,0 Z"
             style="fill:none;stroke:#ffffff;stroke-width:15;stroke-linecap:round;stroke-linejoin:miter;stroke-miterlimit:10;stroke-dasharray:14.81, 29.62;stroke-dashoffset:0;stroke-opacity:1"
             id="path22653" />
        </g>
        <g
           id="g22655"
           transform="translate(240.4043,165.4823)">
          <path
             d="m 0,0 50.096,191.962 h 19 L 119.191,0 c 0,0 -16.081,-12.102 -53.454,-12.102 C 28.365,-12.102 0,0 0,0"
             style="fill:#191715;fill-opacity:1;fill-rule:nonzero;stroke:none"
             id="path22657" />
        </g>
        <g
           id="g22659"
           transform="translate(247.4414,162.9013)">
          <path
             d="m 0,0 c -4.521,1.508 -7.037,2.581 -7.037,2.581 l 1.893,7.257"
             style="fill:none;stroke:#ffffff;stroke-width:15;stroke-linecap:round;stroke-linejoin:round;stroke-miterlimit:4;stroke-dasharray:none;stroke-opacity:1"
             id="path22661" />
        </g>
        <g
           id="g22663"
           transform="translate(250.7178,205.0028)">
          <path
             d="M 0,0 33.679,129.053"
             style="fill:none;stroke:#ffffff;stroke-width:15;stroke-linecap:round;stroke-linejoin:round;stroke-miterlimit:4;stroke-dasharray:16.672, 33.344;stroke-dashoffset:0;stroke-opacity:1"
             id="path22665" />
        </g>
        <g
           id="g22667"
           transform="translate(288.6064,350.1874)">
          <path
             d="m 0,0 1.894,7.257 h 7.5"
             style="fill:none;stroke:#ffffff;stroke-width:15;stroke-linecap:round;stroke-linejoin:round;stroke-miterlimit:4;stroke-dasharray:none;stroke-opacity:1"
             id="path22669" />
        </g>
        <g
           id="g22671"
           transform="translate(302,357.4442)">
          <path
             d="M 0,0 H 7.5 L 9.394,-7.257"
             style="fill:none;stroke:#ffffff;stroke-width:15;stroke-linecap:round;stroke-linejoin:round;stroke-miterlimit:4;stroke-dasharray:none;stroke-opacity:1"
             id="path22673" />
        </g>
        <g
           id="g22675"
           transform="translate(319.8135,317.9237)">
          <path
             d="M 0,0 33.679,-129.053"
             style="fill:none;stroke:#ffffff;stroke-width:15;stroke-linecap:round;stroke-linejoin:round;stroke-miterlimit:4;stroke-dasharray:16.672, 33.344;stroke-dashoffset:0;stroke-opacity:1"
             id="path22677" />
        </g>
        <g
           id="g22679"
           transform="translate(357.7021,172.7392)">
          <path
             d="m 0,0 1.894,-7.257 c 0,0 -2.106,-1.584 -6.563,-3.606"
             style="fill:none;stroke:#ffffff;stroke-width:15;stroke-linecap:round;stroke-linejoin:round;stroke-miterlimit:4;stroke-dasharray:none;stroke-opacity:1"
             id="path22681" />
        </g>
        <g
           id="g22683"
           transform="translate(327.1514,154.7909)">
          <path
             d="m 0,0 c -6.073,-0.862 -13.06,-1.41 -21.01,-1.41 -18.104,0 -34.095,2.84 -45.771,5.768"
             style="fill:none;stroke:#ffffff;stroke-width:15;stroke-linecap:round;stroke-linejoin:round;stroke-miterlimit:4;stroke-dasharray:13.461, 26.922;stroke-dashoffset:0;stroke-opacity:1"
             id="path22685" />
        </g>
      </g>
    </g>
  </g>
</svg>
