<?xml version="1.0" encoding="UTF-8" standalone="no"?>
<!-- Created with Inkscape (http://www.inkscape.org/) -->

<svg
   version="1.1"
   id="svg14483"
   width="76pt"
   height="110pt"
   viewBox="0 0 101.33333 146.66666"
   sodipodi:docname="jump.svg"
   inkscape:version="1.2.1 (9c6d41e410, 2022-07-14)"
   xmlns:inkscape="http://www.inkscape.org/namespaces/inkscape"
   xmlns:sodipodi="http://sodipodi.sourceforge.net/DTD/sodipodi-0.dtd"
   xmlns="http://www.w3.org/2000/svg"
   xmlns:svg="http://www.w3.org/2000/svg">
  <defs
     id="defs14487">
    <clipPath
       clipPathUnits="userSpaceOnUse"
       id="clipPath14499">
      <path
         d="M 0,300 H 300 V 0 H 0 Z"
         id="path14497" />
    </clipPath>
    <clipPath
       clipPathUnits="userSpaceOnUse"
       id="clipPath29">
      <path
         d="M 0,300 H 300 V 0 H 0 Z"
         id="path27" />
    </clipPath>
    <clipPath
       clipPathUnits="userSpaceOnUse"
       id="clipPath7861">
      <path
         d="M 0,300 H 300 V 0 H 0 Z"
         id="path7859" />
    </clipPath>
  </defs>
  <sodipodi:namedview
     id="namedview14485"
     pagecolor="#ffffff"
     bordercolor="#000000"
     borderopacity="0.25"
     inkscape:showpageshadow="2"
     inkscape:pageopacity="0.0"
     inkscape:pagecheckerboard="0"
     inkscape:deskcolor="#d1d1d1"
     showgrid="false"
     inkscape:zoom="4.9604474"
     inkscape:cx="16.42997"
     inkscape:cy="60.881605"
     inkscape:window-width="2560"
     inkscape:window-height="1334"
     inkscape:window-x="-11"
     inkscape:window-y="-11"
     inkscape:window-maximized="1"
     inkscape:current-layer="g14491"
     showguides="false"
     inkscape:document-units="pt">
    <inkscape:page
       x="0"
       y="0"
       id="page14489"
       width="101.33333"
       height="146.66666" />
    <sodipodi:guide
       position="-24.291415,48.399996"
       orientation="0,1"
       id="guide1920"
       inkscape:locked="false"
       inkscape:label=""
       inkscape:color="rgb(0,134,229)" />
    <sodipodi:guide
       position="-36.714228,117.73333"
       orientation="0,1"
       id="guide1922"
       inkscape:locked="false"
       inkscape:label=""
       inkscape:color="rgb(0,134,229)" />
  </sodipodi:namedview>
  <g
     id="g14491"
     inkscape:groupmode="layer"
     inkscape:label="Page 1"
     transform="matrix(1.3333333,0,0,-1.3333333,-70.401065,346.75082)">
    <g
       id="g7855"
       transform="matrix(0.3,0,0,0.3,46.08623,160.33029)"
       style="fill:#ffffff;stroke-width:3.33333">
      <g
         id="g7857"
         clip-path="url(#clipPath7861)"
         style="fill:#ffffff;stroke-width:3.33333">
        <g
           id="g7863"
           transform="translate(129.5013,124.2959)"
           style="fill:#ffffff;stroke-width:3.33333">
          <path
             d="m 0,0 c -22.726,0 -41.146,-9.21 -41.146,-20.573 0,-11.363 18.42,-20.573 41.146,-20.573 22.72,0 41.146,9.21 41.146,20.573 C 41.146,-9.21 22.72,0 0,0"
             style="fill:#ffffff;fill-opacity:1;fill-rule:nonzero;stroke:none;stroke-width:3.33333"
             id="path7865" />
        </g>
        <g
           id="g7867"
           transform="translate(166.8929,148.1709)"
           style="fill:#ffffff;stroke-width:3.33333">
          <path
             d="M 0,0 C -2.39,-3.46 -4.438,-7.159 -6.105,-11.045 H 3.409 L 44.213,-46.383 3.409,-81.719 h -81.606 l -40.804,35.336 40.804,35.338 h 17.202 c 0.811,3.735 1.81,7.42 2.988,11.045 h -32.945 l -53.559,-46.383 53.559,-46.384 H 16.164 L 69.722,-46.383 16.164,0 Z"
             style="fill:#ffffff;fill-opacity:1;fill-rule:nonzero;stroke:none;stroke-width:3.33333"
             id="path7869" />
        </g>
        <g
           id="g7871"
           transform="translate(129.4993,94.7012)"
           style="fill:#ffffff;stroke-width:3.33333">
          <path
             d="m 0,0 c -9.896,0 -17.949,8.052 -17.949,17.949 0,26.7 9.938,52.28 27.984,72.026 16.786,18.366 39.202,30.229 63.57,33.742 v 26.177 L 148.118,106.868 73.605,63.841 V 87.256 C 41.471,80.177 17.95,51.424 17.95,17.949 17.95,8.052 9.897,0 0,0"
             style="fill:#ffffff;fill-opacity:1;fill-rule:nonzero;stroke:none;stroke-width:3.33333"
             id="path7873" />
        </g>
      </g>
    </g>
  </g>
</svg>
