<?xml version="1.0" encoding="UTF-8" standalone="no"?>
<!-- Created with Inkscape (http://www.inkscape.org/) -->

<svg
   version="1.1"
   id="svg14483"
   width="80.338997pt"
   height="110pt"
   viewBox="0 0 107.11866 146.66666"
   sodipodi:docname="range.svg"
   inkscape:version="1.2.1 (9c6d41e410, 2022-07-14)"
   xmlns:inkscape="http://www.inkscape.org/namespaces/inkscape"
   xmlns:sodipodi="http://sodipodi.sourceforge.net/DTD/sodipodi-0.dtd"
   xmlns="http://www.w3.org/2000/svg"
   xmlns:svg="http://www.w3.org/2000/svg">
  <defs
     id="defs14487">
    <clipPath
       clipPathUnits="userSpaceOnUse"
       id="clipPath14499">
      <path
         d="M 0,300 H 300 V 0 H 0 Z"
         id="path14497" />
    </clipPath>
  </defs>
  <sodipodi:namedview
     id="namedview14485"
     pagecolor="#ffffff"
     bordercolor="#000000"
     borderopacity="0.25"
     inkscape:showpageshadow="2"
     inkscape:pageopacity="0.0"
     inkscape:pagecheckerboard="0"
     inkscape:deskcolor="#d1d1d1"
     showgrid="false"
     inkscape:zoom="3.507566"
     inkscape:cx="-110.76057"
     inkscape:cy="52.458029"
     inkscape:window-width="2560"
     inkscape:window-height="1334"
     inkscape:window-x="-11"
     inkscape:window-y="-11"
     inkscape:window-maximized="1"
     inkscape:current-layer="g14491"
     showguides="true"
     inkscape:document-units="pt">
    <inkscape:page
       x="0"
       y="0"
       id="page14489"
       width="107.11866"
       height="146.66666" />
    <sodipodi:guide
       position="-24.291412,48.399998"
       orientation="0,1"
       id="guide1920"
       inkscape:locked="false"
       inkscape:label=""
       inkscape:color="rgb(0,134,229)" />
    <sodipodi:guide
       position="-36.71423,117.73333"
       orientation="0,1"
       id="guide1922"
       inkscape:locked="false"
       inkscape:label=""
       inkscape:color="rgb(0,134,229)" />
  </sodipodi:namedview>
  <g
     id="g14491"
     inkscape:groupmode="layer"
     inkscape:label="Page 1"
     transform="matrix(1.3333333,0,0,-1.3333333,-70.401065,346.75082)">
    <g
       id="g14493"
       transform="matrix(0.42161985,0,0,0.40292802,30.53881,154.24678)"
       style="fill:#ffffff">
      <g
         id="g14495"
         clip-path="url(#clipPath14499)"
         style="fill:#ffffff">
        <g
           id="g14501"
           transform="translate(83.5189,108.5928)"
           style="fill:#ffffff">
          <path
             d="m 0,0 -16.316,129.236 c 0.024,-0.02 0.046,-0.036 0.071,-0.055 10.503,-8.434 26.666,-6.715 42.221,-15.298 13.848,-7.645 27.632,-19.576 54.168,-56.893 26.536,-37.317 33.279,-54.255 35.954,-69.845 3,-17.511 -3.931,-32.214 0.587,-44.904 0.01,-0.029 0.018,-0.055 0.028,-0.085 z m 127.398,-49.345 c -0.273,13.057 6.858,25.019 3.338,46.368 -3.52,21.35 -22.37,48.231 -37.39,69.354 -15.021,21.123 -34.222,47.754 -53.233,58.089 -19.009,10.335 -32.65,7.527 -44.893,12.072 -12.243,4.546 -18.267,17.489 -22.491,14.485 -2.374,-1.687 -1.914,-5.717 0.812,-10.415 L -8.282,-3.381 -5.914,-6.712 124.124,-71.158 c 3.543,-4.117 7.199,-5.875 9.571,-4.188 4.225,3.004 -6.023,12.945 -6.297,26.001"
             style="fill:#ffffff;fill-opacity:1;fill-rule:nonzero;stroke:none"
             id="path14503" />
        </g>
        <g
           id="g14505"
           transform="translate(111.7698,118.2012)"
           style="fill:#ffffff">
          <path
             d="m 0,0 3.535,-15.243 -35.718,-24.883 -5.648,24.342 -21.138,13.327 35.718,24.884 13.238,-8.344 96.054,68.182 -13.921,8.552 59.46,13.228 -32.018,-51.819 -3.507,15.957 z"
             style="fill:#ffffff;fill-opacity:1;fill-rule:nonzero;stroke:none"
             id="path14507" />
        </g>
      </g>
    </g>
    <text
       xml:space="preserve"
       style="font-size:100px;line-height:125%;font-family:'Sakkal Majalla';-inkscape-font-specification:'Sakkal Majalla';letter-spacing:0px;word-spacing:0px;fill:#000000;stroke:#000000;stroke-width:0.75px;stroke-linecap:butt;stroke-linejoin:miter;stroke-opacity:1"
       x="-153.05858"
       y="-186.99789"
       id="text54899"
       transform="scale(1,-1)"><tspan
         sodipodi:role="line"
         id="tspan54897"
         x="-153.05858"
         y="-186.99789"
         style="font-size:100px;fill:#000000;fill-opacity:1;stroke:none;stroke-width:0.75px">Re</tspan></text>
  </g>
</svg>
