<?xml version="1.0" encoding="UTF-8" standalone="no"?>
<!-- Created with Inkscape (http://www.inkscape.org/) -->

<svg
   version="1.1"
   id="svg14483"
   width="240pt"
   height="330pt"
   viewBox="0 0 319.99999 439.99998"
   sodipodi:docname="recover_card.svg"
   inkscape:version="1.2.1 (9c6d41e410, 2022-07-14)"
   xmlns:inkscape="http://www.inkscape.org/namespaces/inkscape"
   xmlns:sodipodi="http://sodipodi.sourceforge.net/DTD/sodipodi-0.dtd"
   xmlns="http://www.w3.org/2000/svg"
   xmlns:svg="http://www.w3.org/2000/svg">
  <defs
     id="defs14487">
    <clipPath
       clipPathUnits="userSpaceOnUse"
       id="clipPath14499">
      <path
         d="M 0,300 H 300 V 0 H 0 Z"
         id="path14497" />
    </clipPath>
    <clipPath
       clipPathUnits="userSpaceOnUse"
       id="clipPath29">
      <path
         d="M 0,300 H 300 V 0 H 0 Z"
         id="path27" />
    </clipPath>
    <clipPath
       clipPathUnits="userSpaceOnUse"
       id="clipPath775">
      <path
         d="M 0,300 H 300 V 0 H 0 Z"
         id="path773" />
    </clipPath>
    <clipPath
       clipPathUnits="userSpaceOnUse"
       id="clipPath795">
      <path
         d="M 145.498,42.667 H 266.871 V 257.333 H 145.498 Z"
         id="path793" />
    </clipPath>
    <clipPath
       clipPathUnits="userSpaceOnUse"
       id="clipPath1240">
      <path
         d="M 0,300 H 300 V 0 H 0 Z"
         id="path1238" />
    </clipPath>
    <clipPath
       clipPathUnits="userSpaceOnUse"
       id="clipPath1260">
      <path
         d="M 145.498,42.667 H 266.871 V 257.333 H 145.498 Z"
         id="path1258" />
    </clipPath>
  </defs>
  <sodipodi:namedview
     id="namedview14485"
     pagecolor="#ffffff"
     bordercolor="#000000"
     borderopacity="0.25"
     inkscape:showpageshadow="2"
     inkscape:pageopacity="0.0"
     inkscape:pagecheckerboard="0"
     inkscape:deskcolor="#d1d1d1"
     showgrid="false"
     inkscape:zoom="1.2401119"
     inkscape:cx="-71.36453"
     inkscape:cy="298.36018"
     inkscape:window-width="2560"
     inkscape:window-height="1334"
     inkscape:window-x="-11"
     inkscape:window-y="-11"
     inkscape:window-maximized="1"
     inkscape:current-layer="g14491"
     showguides="true"
     inkscape:document-units="pt">
    <inkscape:page
       x="0"
       y="0"
       id="page14489"
       width="320"
       height="439.99997" />
    <sodipodi:guide
       position="-24.291413,145.19999"
       orientation="0,1"
       id="guide1920"
       inkscape:locked="false"
       inkscape:label=""
       inkscape:color="rgb(0,134,229)" />
    <sodipodi:guide
       position="-36.71423,353.19999"
       orientation="0,1"
       id="guide1922"
       inkscape:locked="false"
       inkscape:label=""
       inkscape:color="rgb(0,134,229)" />
  </sodipodi:namedview>
  <g
     id="g14491"
     inkscape:groupmode="layer"
     inkscape:label="Page 1"
     transform="matrix(1.3333333,0,0,-1.3333333,-70.401065,346.75082)">
    <text
       xml:space="preserve"
       style="font-size:100px;line-height:125%;font-family:'Sakkal Majalla';-inkscape-font-specification:'Sakkal Majalla';letter-spacing:0px;word-spacing:0px;fill:#000000;stroke:#000000;stroke-width:0.75px;stroke-linecap:butt;stroke-linejoin:miter;stroke-opacity:1"
       x="-447.31619"
       y="-40.248989"
       id="text54899"
       transform="scale(1,-1)"><tspan
         sodipodi:role="line"
         id="tspan54897"
         x="-447.31619"
         y="-40.248989"
         style="font-size:100px;fill:#000000;fill-opacity:1;stroke:none;stroke-width:0.75px"> <tspan
   style="font-size:300px"
   id="tspan1657">Ar</tspan></tspan></text>
    <g
       id="g1234"
       transform="translate(30.96433,-26.470247)">
      <g
         id="g1236"
         clip-path="url(#clipPath1240)">
        <g
           id="g1242"
           transform="translate(173.4769,76.5)">
          <path
             d="m 0,0 -5.858,-9.755 -8.922,7.063 c -12.706,10.058 -33.189,25.923 -45.427,35.403 -5.08,3.935 -8.732,6.764 -9.816,7.619 l -8.791,6.934 7.878,7.955 c 8.346,8.427 17.472,12.397 29.588,12.876 l 3.051,0.12 2.598,-1.604 c 0.404,-0.25 0.404,-0.25 3.308,-2.37 3.406,-2.485 10.141,-7.401 17.874,-12.961 3.345,5.782 6.955,12.048 10.487,18.182 3.626,6.295 6.907,11.989 9.832,17.046 0.069,40.036 0.219,81.117 0.219,81.117 0,5.522 -4.478,10 -10,10 h -126.37 c -5.522,0 -10,-4.478 -10,-10 V -17.292 c 0,-5.522 4.478,-10 10,-10 h 126.37 c 5.522,0 10,4.478 10,10 V 10.132 C 3.548,5.946 1.482,2.468 0,0"
             style="fill:#ffffff;fill-opacity:1;fill-rule:nonzero;stroke:none"
             id="path1244" />
        </g>
        <g
           id="g1246"
           transform="translate(129.6399,124.335)">
          <path
             d="m 0,0 c -0.91,-0.123 -1.774,-0.285 -2.604,-0.49 9.666,-7.487 23.603,-18.287 35.093,-27.288 0.588,0.993 1.199,2.027 1.831,3.1 l -7.663,5.442 C 15.638,-11.409 4.88,-3.562 0,0"
             style="fill:#ffffff;fill-opacity:1;fill-rule:nonzero;stroke:none"
             id="path1248" />
        </g>
        <g
           id="g1250"
           transform="translate(222.4534,179.4932)">
          <path
             d="m 0,0 c -2.69,4.228 -11.046,6.507 -18.767,5.004 -3.71,-5.129 -27.523,-47.123 -41.598,-71.246 -15.015,10.665 -29.267,21.167 -29.565,21.351 -9.967,-0.393 -16.642,-3.627 -22.878,-9.921 3.685,-2.907 37.249,-28.777 55.259,-43.033 C -46.498,-79.443 -1.766,-2.703 0,0"
             style="fill:#e34e61;fill-opacity:1;fill-rule:nonzero;stroke:none"
             id="path1252" />
        </g>
      </g>
    </g>
    <g
       id="g1256"
       clip-path="url(#clipPath1260)"
       transform="translate(30.9643,-26.470247)">
      <g
         id="g1262"
         transform="translate(238.9974,231.4912)">
        <path
           d="m 0,0 c 0,4.769 -3.865,8.634 -8.634,8.634 h -109.101 c -4.769,0 -8.634,-3.865 -8.634,-8.634 v -159.649 c 0,-4.769 3.865,-8.634 8.634,-8.634 H -8.634 c 4.769,0 8.634,3.865 8.634,8.634 v 24.733 C -0.491,-134.479 0,0 0,0 Z"
           style="fill:none;stroke:#ffffff;stroke-width:12;stroke-linecap:butt;stroke-linejoin:miter;stroke-miterlimit:10;stroke-dasharray:14, 14;stroke-dashoffset:0;stroke-opacity:1"
           id="path1264" />
      </g>
    </g>
  </g>
</svg>
