<?xml version="1.0" encoding="UTF-8" standalone="no"?>
<svg
   viewBox="0 0 771.59497 771.59497"
   version="1.1"
   id="svg537"
   sodipodi:docname="regenerate.svg"
   width="771.59497"
   height="771.59497"
   inkscape:version="1.2.1 (9c6d41e410, 2022-07-14)"
   xmlns:inkscape="http://www.inkscape.org/namespaces/inkscape"
   xmlns:sodipodi="http://sodipodi.sourceforge.net/DTD/sodipodi-0.dtd"
   xmlns="http://www.w3.org/2000/svg"
   xmlns:svg="http://www.w3.org/2000/svg">
  <defs
     id="defs541" />
  <sodipodi:namedview
     id="namedview539"
     pagecolor="#ffffff"
     bordercolor="#000000"
     borderopacity="0.25"
     inkscape:showpageshadow="2"
     inkscape:pageopacity="0.0"
     inkscape:pagecheckerboard="0"
     inkscape:deskcolor="#d1d1d1"
     showgrid="false"
     inkscape:zoom="1.31625"
     inkscape:cx="248.81292"
     inkscape:cy="404.17854"
     inkscape:window-width="2560"
     inkscape:window-height="1334"
     inkscape:window-x="-11"
     inkscape:window-y="-11"
     inkscape:window-maximized="1"
     inkscape:current-layer="svg537" />
  <g
     stroke="none"
     id="Regenerate"
     transform="matrix(7.6318427,0,0,7.6318427,3.4505995,3.4373361)"
     style="stroke-width:0.13103">
    <path
       d="m 50,99.1 c -0.677,0 -1.31,-0.263 -1.79,-0.741 l -46.6,-46.6 c -0.986,-0.986 -0.986,-2.6 0,-3.58 l 46.6,-46.6 C 48.688,1.101 49.32,0.838 50,0.838 c 0.677,0 1.31,0.263 1.79,0.741 l 46.6,46.6 c 0.478,0.478 0.741,1.11 0.741,1.79 0,0.677 -0.263,1.31 -0.741,1.79 l -46.6,46.6 C 51.312,98.837 50.68,99.1 50,99.1"
       fill="#c82098"
       id="path530"
       style="stroke-width:0.0655149" />
    <path
       d="M 50,0 C 49.13,0 48.26,0.333 47.6,0.997 L 1,47.597 c -1.33,1.33 -1.33,3.48 0,4.81 l 46.6,46.6 c 0.665,0.665 1.54,0.997 2.4,0.997 0.87,0 1.74,-0.333 2.4,-0.997 L 99,52.407 c 1.33,-1.32 1.33,-3.48 0,-4.81 L 52.4,0.997 C 51.735,0.332 50.86,0 50,0 m 0,1.73 c 0.45,0 0.87,0.175 1.18,0.49 l 46.6,46.6 c 0.653,0.653 0.653,1.72 0,2.37 l -46.6,46.6 c -0.316,0.314 -0.736,0.49 -1.18,0.49 -0.45,0 -0.87,-0.175 -1.18,-0.49 L 2.22,51.19 c -0.653,-0.653 -0.653,-1.72 0,-2.37 L 48.82,2.22 C 49.134,1.906 49.556,1.73 50,1.73"
       fill="#ffffff"
       id="path532"
       style="stroke-width:0.0655149" />
    <path
       d="m 46.8,18.4 c -0.493,0.0077 -1.01,0.158 -1.47,0.478 h 2.89 C 47.879,18.565 47.359,18.391 46.8,18.4 Z m -2.98,4.36 c 0,0.169 0.0043,0.344 0.0156,0.52 h 6.27 c -0.0333,-0.175 -0.05,-0.351 -0.084,-0.52 z m 16.3,0 c -0.175,0.152 -0.325,0.328 -0.49,0.52 h 4.23 c -0.129,-0.192 -0.291,-0.371 -0.484,-0.52 z m -27.1,4.16 c -0.131,0.222 -0.213,0.478 -0.279,0.758 h 5.38 C 37.997,27.385 37.892,27.135 37.793,26.92 Z m 11.2,0 c 0.0329,0.258 0.0812,0.506 0.115,0.758 h 6.22 C 50.5361,27.491 50.5274,27.347 50.5198,27.264 50.5009,27.1763 50.5017,27.069 50.4866,26.92 Z m 13.6,0 c -0.0745,0.251 -0.157,0.508 -0.24,0.76 h 6.5 c 0.0495,-0.246 0.0989,-0.503 0.148,-0.76 z m -24.7,4.16 c 0.0994,0.332 0.216,0.67 0.332,0.998 h 6.33 C 39.66,31.745 39.525,31.413 39.409,31.08 Z m 11.7,0 c 0.0499,0.349 0.0845,0.682 0.0996,0.998 h 6.02 c -0.0333,-0.337 -0.0689,-0.67 -0.084,-0.998 z m 11.9,0 c -0.0945,0.414 -0.161,0.758 -0.211,0.998 h 6.68 c 0.0828,-0.361 0.149,-0.695 0.215,-0.998 z m -1.03,4.16 c -0.111,0.402 -0.216,0.822 -0.332,1.23 h 6.8 c 0.099,-0.414 0.192,-0.822 0.291,-1.23 z m -20.9,0.002 c 0.0646,0.164 0.13,0.316 0.18,0.432 0.0711,0.187 0.184,0.46 0.316,0.799 h 6.25 c -0.157,-0.361 -0.32,-0.781 -0.5,-1.23 z m -8.63,0.002 c -0.496,0.337 -0.88,0.741 -1.12,1.23 h 4.58 c -0.45,-0.501 -0.904,-0.933 -1.34,-1.23 z m 19.1,0 c 0.0499,0.402 0.116,0.817 0.166,1.23 h 5.85 c -0.0166,-0.39 -0.048,-0.805 -0.082,-1.23 z m -20.3,4.15 c 0.139,0.45 0.332,0.941 0.588,1.48 h 7.2 c -0.263,-0.427 -0.592,-0.936 -0.959,-1.48 z m 11.4,0 c 0.164,0.485 0.331,0.982 0.496,1.48 h 6.5 c -0.222,-0.438 -0.438,-0.941 -0.66,-1.48 z m 9.38,0 c 0.0265,0.543 0.0457,1.05 0.0117,1.48 h 6.37 c -0.268,-0.112 -0.499,-0.44 -0.631,-1.48 z m 8.82,0.002 c -0.125,0.438 -0.225,0.755 -0.291,0.904 -0.111,0.281 -0.263,0.457 -0.443,0.572 h 7.32 c 0.106,-0.471 0.222,-0.967 0.338,-1.47 h -6.93 z m -17,4.16 c 0.141,0.665 0.21,1.26 0.176,1.72 h 22.6 c 0,-0.0166 -0.0078,-0.0513 -0.0078,-0.0664 -0.0162,-0.217 0.0747,-0.806 0.24,-1.65 z m -10.5,0.002 c 0.0329,0.0711 0.0814,0.137 0.131,0.203 0.356,0.538 0.688,1.05 0.986,1.51 h 7.62 c -0.431,-0.467 -0.89,-1.07 -1.34,-1.71 z m 46.5,1.05 c -0.683,0.0206 -1.37,0.242 -2.07,0.66 h 4.09 c -0.315,-0.332 -1.19,-0.645 -1.81,-0.66 -0.0706,-0.0022 -0.142,-0.0021 -0.213,0 z m -6.02,3.11 c -0.503,0.385 -0.9,0.694 -1.16,0.859 -0.66,0.404 -1.32,0.859 -2.11,1.09 h 11.8 c 0.688,-0.63 1.15,-1.08 1.22,-1.2 l -0.0059,-0.002 c 0.0843,-0.134 0.0838,-0.408 -0.0156,-0.752 z m -37.9,0.0039 c 0.457,0.77 0.802,1.41 1.07,1.95 h 31.2 c -0.979,-0.315 -1.35,-1.01 -1.52,-1.95 z m 1.97,4.16 c 0.0495,0.159 0.0989,0.314 0.148,0.463 0.111,0.351 0.186,0.951 0.285,1.73 h 39 c 0.805,-0.7 1.68,-1.46 2.5,-2.19 z m 0.678,4.16 c 0.0993,0.759 0.219,1.58 0.385,2.43 h 34.3 c 0.357,-0.824 0.677,-1.43 0.945,-1.66 0.146,-0.122 0.468,-0.398 0.906,-0.771 z m 0.769,4.16 c 0.228,0.899 0.509,1.8 0.859,2.67 h 31.2 c 0.385,-0.881 0.754,-1.81 1.1,-2.67 z m 1.55,4.16 c 0.122,0.233 0.264,0.454 0.396,0.676 0.455,0.735 0.939,1.49 1.44,2.23 h 26 c 0.397,-0.478 0.776,-0.966 1.12,-1.44 0.298,-0.414 0.585,-0.916 0.871,-1.46 z m 2.71,4.16 c 0.951,1.31 1.94,2.46 2.89,3.14 h 18.3 c -1.27e-4,0.0016 0,0.0021 0,0.0039 l 0.002,-0.0039 c 0.0013,-0.0149 0.0059,-0.0225 0.0059,-0.0293 0.105,-0.233 1.43,-1.53 2.84,-3.12 z m 3.73,4.16 c 0.24,0.84 0.34,2.1 0.355,3.38 h 17.2 c -0.0488,-1.27 -0.0745,-2.53 -0.082,-3.38 z m 0.363,4.38 c 0,1.32 -0.0656,2.36 -0.0996,3.11 -0.0297,0.427 0.232,0.825 0.641,0.957 1.37,0.466 4.6,1.42 7.88,1.31 3.33,-0.123 6.81,-1.2 8.24,-1.69 0.404,-0.134 0.664,-0.515 0.648,-0.941 h -0.002 c -0.0329,-0.683 -0.0812,-1.57 -0.115,-2.75 z"
       fill="#ffffff"
       id="path534"
       style="stroke-width:0.0655149" />
  </g>
</svg>
