<?xml version="1.0" encoding="UTF-8" standalone="no"?>
<!-- Created with Inkscape (http://www.inkscape.org/) -->

<svg
   version="1.1"
   id="svg18494"
   width="771.59534"
   height="771.59332"
   viewBox="0 0 771.59534 771.59332"
   sodipodi:docname="stun.svg"
   inkscape:version="1.2.1 (9c6d41e410, 2022-07-14)"
   xmlns:inkscape="http://www.inkscape.org/namespaces/inkscape"
   xmlns:sodipodi="http://sodipodi.sourceforge.net/DTD/sodipodi-0.dtd"
   xmlns="http://www.w3.org/2000/svg"
   xmlns:svg="http://www.w3.org/2000/svg">
  <defs
     id="defs18498">
    <clipPath
       clipPathUnits="userSpaceOnUse"
       id="clipPath18510">
      <path
         d="M 0,600 H 600 V 0 H 0 Z"
         id="path18508" />
    </clipPath>
  </defs>
  <sodipodi:namedview
     id="namedview18496"
     pagecolor="#ffffff"
     bordercolor="#000000"
     borderopacity="0.25"
     inkscape:showpageshadow="2"
     inkscape:pageopacity="0.0"
     inkscape:pagecheckerboard="0"
     inkscape:deskcolor="#d1d1d1"
     showgrid="false"
     inkscape:zoom="1.37125"
     inkscape:cx="385.7794"
     inkscape:cy="386.14403"
     inkscape:window-width="2560"
     inkscape:window-height="1334"
     inkscape:window-x="-11"
     inkscape:window-y="-11"
     inkscape:window-maximized="1"
     inkscape:current-layer="g18502">
    <inkscape:page
       x="0"
       y="0"
       id="page18500"
       width="771.59534"
       height="771.59332" />
  </sodipodi:namedview>
  <g
     id="g18502"
     inkscape:groupmode="layer"
     inkscape:label="Page 1"
     transform="matrix(1.3333333,0,0,-1.3333333,-14.2026,785.79665)">
    <g
       id="g18504">
      <g
         id="g18506"
         clip-path="url(#clipPath18510)">
        <g
           id="g18512"
           transform="translate(300.0002,15.6523)">
          <path
             d="m 0,0 c -3.922,0 -7.608,1.527 -10.382,4.3 l -269.666,269.666 c -5.723,5.724 -5.723,15.039 0,20.763 l 269.666,269.667 c 2.774,2.772 6.46,4.299 10.382,4.299 3.922,0 7.608,-1.527 10.382,-4.299 L 280.048,294.729 c 5.723,-5.724 5.723,-15.039 0,-20.763 L 10.382,4.3 C 7.608,1.527 3.922,0 0,0"
             style="fill:#2e4067;fill-opacity:1;fill-rule:nonzero;stroke:none"
             id="path18514" />
        </g>
        <g
           id="g18516"
           transform="translate(300.0002,589.3475)">
          <path
             d="m 0,0 c -5.037,0 -10.074,-1.921 -13.917,-5.765 l -269.666,-269.666 c -7.687,-7.686 -7.687,-20.147 0,-27.834 l 269.666,-269.666 c 3.843,-3.842 8.88,-5.764 13.917,-5.764 5.037,0 10.073,1.922 13.917,5.764 l 269.666,269.666 c 7.687,7.687 7.687,20.148 0,27.834 L 13.917,-5.765 C 10.073,-1.921 5.037,0 0,0 m 0,-10 c 2.586,0 5.017,-1.007 6.846,-2.835 l 269.667,-269.667 c 1.828,-1.828 2.835,-4.26 2.835,-6.846 0,-2.586 -1.007,-5.016 -2.836,-6.845 L 6.846,-565.859 c -1.829,-1.829 -4.26,-2.836 -6.846,-2.836 -2.586,0 -5.018,1.007 -6.846,2.836 l -269.667,269.666 c -3.774,3.774 -3.774,9.917 0,13.691 L -6.846,-12.835 C -5.018,-11.007 -2.586,-10 0,-10"
             style="fill:#ffffff;fill-opacity:1;fill-rule:nonzero;stroke:none"
             id="path18518" />
        </g>
        <g
           id="g18520"
           transform="translate(357.3215,312.5732)">
          <path
             d="m 0,0 -21.821,-14.767 11.594,-23.745 -25.67,-0.225 -5.547,-26.422 -18.194,15.834 -17.13,-14.06 -2.968,28.519 -28.407,5.382 21.259,21.567 -12.796,25.058 24.567,1.791 17.957,31.158 18.914,-27.007 21.828,8.715 -8.733,-20.144 z m 44.584,8.896 -39.938,-27.027 21.222,-43.457 -46.982,-0.413 -10.151,-48.355 -33.298,28.978 -31.349,-25.73 -5.434,52.192 -51.988,9.851 38.906,39.471 -23.419,45.859 44.961,3.278 32.865,57.025 L -25.406,51.142 14.543,67.091 -1.44,30.225 Z m 22.291,100.966 -81.721,-22.496 -55.461,72.343 -39.277,-93.043 -90.718,1.146 52.798,-66.207 -81.219,-66.757 104.32,-16.577 2.576,-87.396 62.198,51.543 50.264,-45.255 0.696,76.617 82.032,-11.768 -33.066,73.085 74.182,37.024 L 34.95,46.39 Z"
             style="fill:#ffffff;fill-opacity:1;fill-rule:nonzero;stroke:none"
             id="path18522" />
        </g>
      </g>
    </g>
  </g>
</svg>
